<svg width="111" height="114" viewBox="0 0 111 114" fill="none" xmlns="http://www.w3.org/2000/svg">
<path d="M27.2002 32.6986C26.81 31.1385 26.0731 29.6217 25.0545 28.1482C23.2556 25.5912 20.6114 23.7061 17.1437 22.4493C18.3357 21.3008 19.2243 20.239 19.7445 19.2639C20.2863 18.2672 20.5464 17.1404 20.5464 15.8836C20.5464 15.3852 20.5464 14.8868 20.5464 14.3884C20.5464 13.2183 20.5031 12.1999 20.4164 11.3331C20.3297 10.4664 19.9612 9.72963 19.2894 9.10123C18.6175 8.47283 17.8806 8.1478 17.0787 8.0828C16.2767 8.03946 15.3881 8.03946 14.4128 8.0828C10.8584 8.27782 7.30394 8.4295 3.7495 8.4945C2.49244 8.51617 1.23539 8.51617 0 8.51617C0 25.0062 0 41.5179 0 58.0079C0 58.1812 0 58.3329 0 58.5063C0.0650203 58.5063 0.260078 58.5063 0.606853 58.5279C0.931955 58.5496 1.36542 58.5496 1.90726 58.5496C2.83922 58.5496 4.03126 58.4846 5.46171 58.3546C6.89215 58.2246 8.45263 57.9429 10.1432 57.5312C11.8337 57.1194 13.5676 56.5127 15.3231 55.7326C17.1003 54.9526 18.7692 53.9341 20.3514 52.6773C21.9335 51.4205 23.364 49.882 24.621 48.0835C25.8781 46.285 26.81 44.1615 27.4602 41.7346C27.4602 41.6912 27.4602 41.6695 27.4602 41.6262C27.5036 41.5179 27.5903 41.0411 27.742 40.1961C27.8937 39.351 27.937 38.2675 27.8937 36.9674C27.8287 35.6889 27.5903 34.2588 27.2002 32.6986ZM6.19861 14.6268C8.77775 14.5401 11.3352 14.4318 13.9143 14.2801C14.0444 14.2801 14.1744 14.2584 14.3045 14.2584C14.3045 14.3884 14.3045 14.5184 14.3045 14.6701C14.3045 15.1902 14.3045 15.7102 14.3045 16.2303C14.3045 16.5987 13.9143 17.1621 13.1124 17.9205C12.3105 18.6789 11.1618 19.6323 9.64468 20.8024C9.64468 20.8241 9.64468 20.8458 9.64468 20.8458C9.03782 21.3225 8.45264 21.7992 7.84578 22.2542C7.30395 22.6876 6.74044 23.121 6.19861 23.5544C6.19861 20.5857 6.19861 17.6171 6.19861 14.6268ZM21.5867 39.5243C21.5217 40.0877 21.4784 40.4344 21.435 40.5428C20.8715 42.493 20.0046 44.1398 18.8559 45.4833C17.7072 46.8267 16.4068 47.9535 14.998 48.8419C13.5676 49.7304 12.0938 50.4238 10.5333 50.9005C8.97281 51.3772 7.54236 51.7239 6.19861 51.9189C6.19861 45.0716 6.19861 38.2242 6.19861 31.3768C6.76212 30.9435 7.32562 30.5101 7.9108 30.0767C8.01917 29.99 8.10587 29.9033 8.21423 29.8167C8.25758 29.8167 8.25758 29.795 8.25758 29.7733C8.7344 29.3833 9.23288 29.0149 9.70969 28.6249C10.2299 28.2132 10.75 27.7798 11.2702 27.3681C13.2641 27.7581 14.998 28.3215 16.4285 29.0583C17.8589 29.8167 19.0076 30.7701 19.8312 31.9619C20.4597 32.8503 20.9149 33.7821 21.1533 34.7572C21.4134 35.7323 21.5434 36.6207 21.6084 37.4658C21.6518 38.2459 21.6518 38.9609 21.5867 39.5243Z" fill="white"/>
<path d="M104.531 0.0866808C104.531 6.50067 104.531 12.9363 104.531 19.3503C103.469 18.0718 102.602 17.1401 101.973 16.555C100.998 15.6233 100.023 14.8432 99.0473 14.2148C98.0503 13.5864 97.1183 13.023 96.208 12.5029C95.2978 11.9829 94.4959 11.5062 93.7806 11.0511C93.0654 10.6177 92.4586 10.0977 92.0034 9.53431C91.5266 8.97091 91.1798 8.27751 90.9198 7.47576C90.6597 6.67401 90.5513 5.65558 90.5513 4.42046C90.5513 3.207 90.5513 1.97187 90.5513 0.758411C88.449 0.910093 86.3467 1.06178 84.2227 1.23513C84.2227 17.9635 84.2227 34.6702 84.2227 51.3986C86.325 51.2252 88.4273 51.0519 90.5513 50.9219C90.5513 39.5024 90.5513 28.0829 90.5513 16.6634C90.9197 16.9017 91.2882 17.1401 91.6783 17.3351C92.0684 17.5518 92.4802 17.7685 92.9137 18.0068C93.759 18.4836 94.5609 18.9819 95.3411 19.4803C96.1214 19.9787 96.8583 20.5421 97.5301 21.1705C97.8336 21.4522 98.3754 22.0372 99.134 22.904C99.8925 23.7708 100.694 24.8759 101.496 26.1977C102.298 27.5195 103.014 29.058 103.62 30.7915C104.249 32.525 104.552 34.4102 104.552 36.4037C104.552 44.7462 104.552 53.0887 104.552 61.4313C106.655 61.3879 108.757 61.3446 110.881 61.3446C110.881 40.8892 110.881 20.4554 110.881 0C108.757 0 106.633 0.043343 104.531 0.0866808Z" fill="white"/>
<path d="M29.3027 112.527C31.4051 112.332 33.5074 112.137 35.6314 111.92C35.6314 95.1698 35.6314 78.4414 35.6314 61.6914C33.5291 61.9081 31.4267 62.1031 29.3027 62.2981C29.3027 79.0482 29.3027 95.7765 29.3027 112.527Z" fill="white"/>
<path d="M58.193 78.5062C57.131 77.3144 56.264 76.4693 55.6355 75.9276C54.6602 75.0609 53.6849 74.3675 52.6879 73.8041C51.6909 73.2407 50.759 72.7423 49.8487 72.2656C48.9384 71.7888 48.1365 71.3555 47.4213 70.9654C46.706 70.5537 46.0992 70.077 45.644 69.5353C45.1672 68.9936 44.8205 68.3218 44.5604 67.5201C44.3003 66.7183 44.1919 65.7216 44.1919 64.4648C44.1919 63.2513 44.1919 62.0162 44.1919 60.8027C42.0896 61.0411 39.9656 61.2578 37.8633 61.4745C37.8633 78.2245 37.8633 94.9529 37.8633 111.703C39.9656 111.486 42.0896 111.27 44.1919 111.031C44.1919 99.59 44.1919 88.1705 44.1919 76.7294C44.5604 76.9677 44.9288 77.1627 45.3189 77.3578C45.7091 77.5528 46.1209 77.7478 46.5543 77.9645C47.3996 78.3979 48.2015 78.8529 48.9817 79.308C49.762 79.763 50.4989 80.2831 51.1708 80.8681C51.4742 81.1281 52.016 81.6699 52.7746 82.4933C53.5548 83.3167 54.3351 84.3568 55.137 85.6136C55.9389 86.8704 56.6541 88.3439 57.261 90.034C57.8895 91.7242 58.193 93.5661 58.193 95.5813C58.193 100.197 58.193 104.812 58.193 109.449C60.2953 109.211 62.4193 108.973 64.5216 108.734C64.5216 95.3429 64.5216 81.9732 64.5216 68.5819C62.4193 68.8202 60.2953 69.0586 58.193 69.2969C58.193 72.3739 58.193 75.4292 58.193 78.5062Z" fill="white"/>
<path d="M92.1335 70.7274C92.1335 72.7209 92.1335 74.7145 92.1335 76.6863C92.1335 83.7937 92.1335 90.8794 92.1335 97.9868C89.5977 97.1418 87.3436 96.1883 85.3713 95.1049C83.4207 94.0214 81.7302 92.7863 80.2998 91.3995C78.8693 90.0127 77.7206 88.4309 76.8103 86.654C75.9001 84.8772 75.2282 82.9053 74.7947 80.6951C74.5347 79.4166 74.4046 78.0298 74.448 76.5563C74.4913 75.0828 74.7297 73.631 75.1848 72.1792C75.64 70.7491 76.3336 69.3839 77.2655 68.0838C78.1975 66.7837 79.4545 65.6569 81.0367 64.7251C81.9686 64.1617 82.9006 63.7283 83.7892 63.3816C84.6995 63.0349 85.6314 62.7749 86.6284 62.5799C87.6254 62.3849 88.6874 62.2332 89.8361 62.1465C90.9848 62.0382 92.3069 61.9515 93.7807 61.8648C94.1491 61.8432 94.5175 61.8215 94.886 61.7998C94.886 59.7846 94.886 57.7911 94.886 55.7759C94.5175 55.7975 94.1491 55.8192 93.7807 55.8409C92.2418 55.9276 90.7897 56.0359 89.4676 56.1659C88.1239 56.2959 86.8235 56.4909 85.5664 56.7726C84.3094 57.0327 83.074 57.401 81.8819 57.8561C80.6682 58.3111 79.4328 58.9179 78.1541 59.6763C76.2469 60.8247 74.5997 62.2332 73.2126 63.9017C71.8255 65.5702 70.7201 67.3904 69.8965 69.4056C69.073 71.3991 68.5744 73.5227 68.3577 75.7546C68.1626 77.9865 68.2927 80.24 68.7695 82.5369C69.6148 86.6324 71.0669 90.056 73.1692 92.8296C75.2715 95.6033 77.6773 97.8568 80.4298 99.612C83.1823 101.367 86.1083 102.732 89.2292 103.686C92.3502 104.661 95.3628 105.376 98.267 105.831C98.267 103.772 98.267 101.714 98.267 99.6553C98.267 91.8762 98.267 84.1188 98.267 76.3396C102.472 76.1446 106.655 76.0363 110.859 76.0363C110.859 74.0427 110.859 72.0492 110.859 70.0773C106.655 70.0773 102.472 70.1857 98.267 70.3807C96.2081 70.489 94.1708 70.5974 92.1335 70.7274Z" fill="white"/>
<path d="M9.40595 63.598C6.35 63.7064 3.31572 63.7714 0.259766 63.7714C0.259766 80.5214 0.259766 97.2498 0.259766 114C16.103 111.703 27.8934 96.8381 27.8934 80.9331C27.8934 70.6838 19.6141 63.2297 9.40595 63.598ZM7.04354 104.769C7.04354 93.3277 7.04354 81.8866 7.04354 70.4671C7.82379 70.4454 8.60404 70.4237 9.40595 70.4021C15.843 70.1637 21.0879 75.0175 21.0879 81.4532C21.0879 91.1825 15.4312 100.327 7.04354 104.769Z" fill="white"/>
<path d="M43.3038 53.6735C46.9449 61.821 55.2675 66.3498 64.5437 65.3096C64.5437 63.0561 64.5437 60.7809 64.5437 58.5273C57.9983 59.264 52.1249 56.057 49.5457 50.3148C47.5084 45.7643 45.4711 41.2355 43.4338 36.6851C43.6505 36.4034 43.889 36.0783 44.1274 35.7533C44.5825 35.1466 45.1027 34.4315 45.7095 33.6298C46.3597 32.763 47.0099 31.8746 47.6601 31.0078C49.1556 28.9926 50.4343 27.2808 51.4746 25.8073C52.515 24.3555 53.3602 23.0553 54.0104 21.8852C54.6606 20.7151 55.1375 19.6317 55.4192 18.5916C55.701 17.5515 55.8527 16.4463 55.8527 15.2329C55.8527 14.3878 55.8527 13.5644 55.8527 12.7193C55.8527 11.7225 55.8527 10.8558 55.8527 10.119C55.8527 9.38229 55.8093 8.73222 55.7226 8.16883C55.636 7.60544 55.5059 7.12872 55.2892 6.71701C55.0941 6.3053 54.8124 5.93694 54.4439 5.61191C53.772 5.02685 53.0568 4.72348 52.2549 4.70181C51.4747 4.68014 50.7161 4.72348 49.9792 4.81016C49.7191 4.83182 49.4807 4.87516 49.2206 4.89683C49.2206 4.9185 49.2206 4.94017 49.2206 4.94017C49.1556 4.9185 49.0039 4.9185 48.7655 4.94017C48.7004 4.94017 48.6354 4.96184 48.5704 4.96184C42.1551 5.67691 35.7614 6.37031 29.3461 6.9337C29.3461 7.12872 29.3461 7.34541 29.3461 7.54043C29.3244 7.54043 29.3027 7.54043 29.3027 7.54043C29.3027 24.0521 29.3027 40.5855 29.3027 57.0971C31.4051 56.9021 33.5074 56.7071 35.6314 56.4904C35.6314 53.3701 35.6314 50.2281 35.6314 47.1078C36.1299 46.4361 36.65 45.7643 37.1485 45.0926C37.3653 44.8109 37.582 44.5075 37.777 44.2258C38.0588 43.8575 38.3406 43.4891 38.6006 43.1207C40.1611 46.6961 41.7216 50.1848 43.3038 53.6735ZM35.6747 37.2485C35.6314 37.2918 35.6314 37.3135 35.6314 37.3568C35.6314 29.1443 35.6314 20.9318 35.6314 12.7193C38.8824 12.3943 42.1334 12.0476 45.3844 11.6792C45.6445 11.6575 45.8829 11.6142 46.143 11.5925C47.1833 11.4842 48.202 11.3542 49.2423 11.2458C49.3723 11.2241 49.5024 11.2241 49.6324 11.2025C49.6324 11.9609 49.6324 12.6976 49.6324 13.456C49.6324 14.3011 49.6324 15.1679 49.6324 16.013C49.6324 16.6847 49.5457 17.3131 49.3507 17.8982C49.1773 18.4832 48.8305 19.1766 48.3537 20C47.8769 20.8018 47.1833 21.8202 46.2947 23.012C45.4061 24.2038 44.2791 25.764 42.8703 27.6491C42.2201 28.5159 41.5699 29.4043 40.9197 30.2711C39.7276 31.8962 38.774 33.1747 38.0805 34.1065C37.3869 35.0382 36.8451 35.71 36.4983 36.165C36.1515 36.6417 35.8698 36.9884 35.6747 37.2485Z" fill="white"/>
<path d="M61.4661 3.53199C61.4661 5.63387 61.4661 7.73575 61.4661 9.83763C63.8936 9.55594 66.2993 9.29591 68.7267 9.03588C68.5967 9.72929 68.4233 10.401 68.2499 11.0944C68.0765 11.7878 67.7948 12.5246 67.4263 13.348C66.5811 15.2332 65.6274 17.075 64.5437 18.8736C63.4601 20.6721 62.3114 22.4923 61.1193 24.3774C59.6239 26.761 58.1501 29.1446 56.7196 31.5715C55.2892 33.9984 54.0755 36.5554 53.1219 39.264C52.645 40.5858 52.2766 41.9076 52.0165 43.2294C51.8865 43.8361 51.7998 44.4428 51.6914 45.0496C53.8154 44.8112 55.9394 44.5728 58.0634 44.3128C58.2801 43.1427 58.6052 41.9726 59.017 40.8458C59.6889 39.0039 60.4691 37.2271 61.3794 35.5153C61.5745 35.6236 61.7479 35.7319 61.9429 35.8186C62.3331 36.0136 62.7449 36.2087 63.1783 36.4253C64.0236 36.8587 64.8255 37.3138 65.6057 37.7688C66.386 38.2239 67.1229 38.7439 67.7948 39.329C68.0982 39.589 68.64 40.1307 69.3986 40.9541C70.1572 41.7775 70.9591 42.8177 71.761 44.0961C72.5629 45.3746 73.2781 46.8481 73.885 48.5382C74.2968 49.665 74.5569 50.8568 74.6869 52.1136V52.1353C76.7892 51.9186 78.8916 51.7236 80.9939 51.5285C80.9939 34.8435 80.9939 18.1585 80.9939 1.49512C74.4918 2.10185 67.9898 2.79525 61.4661 3.53199ZM72.2595 34.4535C71.2842 33.5867 70.3089 32.8716 69.3336 32.3083C68.3366 31.7449 67.4046 31.2248 66.4944 30.7698C65.8875 30.4447 65.3023 30.1414 64.7822 29.8597C65.2806 29.0579 65.8008 28.2345 66.3426 27.4111C67.6214 25.4609 68.8568 23.5107 70.0488 21.5605C71.2408 19.5886 72.3028 17.5084 73.2131 15.3199C73.2348 15.2982 73.2565 15.2765 73.2565 15.2549C73.5816 14.4531 73.8633 13.673 74.1017 12.9363C74.3401 12.1995 74.5352 11.4845 74.7086 10.7911C74.7086 19.502 74.7086 28.2128 74.7086 36.9237C73.6899 35.7969 72.8663 34.9735 72.2595 34.4535Z" fill="white"/>
</svg>
