<svg width="75" height="69" viewBox="0 0 75 69" fill="none" xmlns="http://www.w3.org/2000/svg">
<path d="M16.7086 19.7755C16.4711 18.8394 16.0355 17.9033 15.402 17.0061C14.2934 15.4459 12.6701 14.3148 10.532 13.5347C11.2843 12.8326 11.799 12.2085 12.1157 11.5844C12.4325 10.9994 12.5909 10.2973 12.5909 9.51716C12.5909 9.20512 12.5909 8.89308 12.5909 8.62005C12.5909 7.91796 12.5513 7.29387 12.5117 6.78681C12.4721 6.27974 12.2345 5.81168 11.8386 5.42163C11.4426 5.03158 10.9675 4.83655 10.4924 4.79755C10.0173 4.75854 9.46295 4.75854 8.86904 4.79755C6.69137 4.91456 4.51371 4.99257 2.29645 5.03158C1.54416 5.03158 0.752285 5.03158 0 5.03158C0 15.1339 0 25.1192 0 35.1045C0 35.2215 0 35.2995 0 35.4165C0.0395939 35.4165 0.158376 35.4165 0.356345 35.4165C0.554315 35.4165 0.831473 35.4165 1.14822 35.4165C1.74213 35.4165 2.45482 35.3775 3.32589 35.2995C4.19696 35.2215 5.18681 35.0655 6.21625 34.7925C7.24569 34.5584 8.31473 34.1684 9.38376 33.7003C10.4528 33.2323 11.5218 32.6082 12.4721 31.8281C13.4619 31.048 14.333 30.1509 15.0853 29.0587C15.8376 27.9666 16.4315 26.6794 16.8274 25.2362C16.8274 25.1972 16.8274 25.1972 16.8274 25.1582C16.867 25.0802 16.9066 24.8072 16.9858 24.3001C17.065 23.793 17.1046 23.1299 17.065 22.3498C17.1046 21.6087 16.9462 20.7116 16.7086 19.7755ZM3.80102 8.85408C5.38478 8.81507 6.96853 8.73706 8.55229 8.65905C8.63148 8.65905 8.71067 8.65905 8.78985 8.65905C8.78985 8.73706 8.78985 8.81507 8.78985 8.89308C8.78985 9.20512 8.78985 9.51717 8.78985 9.82921C8.78985 10.0632 8.55229 10.3753 8.03757 10.8433C7.56244 11.3114 6.84975 11.8965 5.8995 12.5986V12.6376C5.54315 12.9106 5.14721 13.2226 4.79087 13.4957C4.43452 13.7687 4.11777 14.0028 3.76142 14.2758C3.80102 12.4425 3.80102 10.6483 3.80102 8.85408ZM13.264 23.91C13.2244 24.2611 13.1848 24.4561 13.1848 24.5341C12.8284 25.7043 12.3137 26.7184 11.601 27.5375C10.8883 28.3566 10.0965 29.0197 9.22539 29.5658C8.35432 30.1119 7.44366 30.5409 6.49341 30.8139C5.54315 31.087 4.63249 31.321 3.84061 31.438C3.84061 27.3035 3.84061 23.1299 3.84061 18.9954C4.19696 18.7224 4.5533 18.4883 4.87005 18.2153C4.94924 18.1763 4.98884 18.0983 5.06802 18.0593C5.10762 18.0593 5.10762 18.0593 5.10762 18.0203C5.42437 17.7862 5.70153 17.5522 6.01828 17.3182C6.33503 17.0451 6.65178 16.8111 6.96853 16.5381C8.19594 16.7721 9.26498 17.1232 10.136 17.5522C11.0071 18.0203 11.7198 18.6054 12.2345 19.3074C12.6305 19.8535 12.9076 20.3996 13.066 20.9847C13.2244 21.5697 13.3036 22.1158 13.3432 22.6229C13.3036 23.1689 13.3036 23.559 13.264 23.91Z" fill="#EB006A"/>
<path d="M64.2212 0.0390051C64.2212 3.93952 64.2212 7.80102 64.2212 11.7015C63.5481 10.9214 63.0334 10.3754 62.6374 10.0243C62.0435 9.43923 61.4496 8.97117 60.8161 8.62013C60.2222 8.23008 59.6283 7.87903 59.074 7.56699C58.5197 7.25495 58.0049 6.94291 57.5694 6.70888C57.1339 6.43584 56.7775 6.1238 56.4608 5.77276C56.1836 5.42171 55.9461 4.99265 55.7877 4.52459C55.6293 4.05653 55.5501 3.43245 55.5501 2.69135C55.5501 1.95026 55.5501 1.20916 55.5501 0.468061C54.2435 0.546071 52.9765 0.663087 51.6699 0.741097C51.6699 10.8824 51.6699 20.9847 51.6699 31.1261C52.9765 31.0091 54.2435 30.931 55.5501 30.853C55.5501 23.9491 55.5501 17.0062 55.5501 10.1023C55.7877 10.2583 56.0253 10.3754 56.2628 10.5314C56.5004 10.6484 56.7379 10.8044 57.0151 10.9214C57.5298 11.2335 58.0445 11.5065 58.5197 11.8185C58.9948 12.1306 59.4303 12.4426 59.8659 12.8327C60.0638 12.9887 60.3806 13.3397 60.8557 13.8858C61.3308 14.4319 61.806 15.095 62.3207 15.8751C62.7958 16.6942 63.2313 17.5913 63.6273 18.6444C64.0232 19.6976 64.1816 20.8287 64.1816 22.0379C64.1816 27.0695 64.1816 32.1402 64.1816 37.1719C65.4882 37.1329 66.7552 37.1329 68.0618 37.1329C68.0618 24.7682 68.0618 12.3646 68.0618 0C66.8344 0 65.5278 0 64.2212 0.0390051Z" fill="#EB006A"/>
<path d="M18.0151 68.1027C19.3217 67.9857 20.5887 67.8686 21.8953 67.7516C21.8953 57.6103 21.8953 47.469 21.8953 37.3667C20.5887 37.4837 19.3217 37.6007 18.0151 37.7177C18.0151 47.859 18.0151 57.9613 18.0151 68.1027Z" fill="#EB006A"/>
<path d="M35.7539 47.5083C35.0808 46.8062 34.5661 46.2601 34.1702 45.9481C33.5762 45.441 32.9823 45.0119 32.3488 44.6609C31.7549 44.3098 31.161 43.9978 30.6067 43.7248C30.0524 43.4517 29.5377 43.1787 29.1021 42.9447C28.6666 42.7106 28.3103 42.3986 27.9935 42.0865C27.7163 41.7355 27.4788 41.3454 27.3204 40.8774C27.162 40.4093 27.0828 39.7852 27.0828 39.0441C27.0828 38.3031 27.0828 37.562 27.0828 36.8209C25.7762 36.9769 24.5092 37.0939 23.2026 37.2109C23.2026 47.3522 23.2026 57.4936 23.2026 67.5959C24.5092 67.4789 25.7762 67.3228 27.0828 67.2058C27.0828 60.3019 27.0828 53.359 27.0828 46.4551C27.3204 46.6111 27.558 46.7282 27.7955 46.8452C28.0331 46.9622 28.2707 47.0792 28.5478 47.2352C29.0625 47.5083 29.5773 47.7813 30.0524 48.0543C30.5275 48.3274 31.0026 48.6394 31.3986 48.9904C31.5966 49.1465 31.9133 49.4975 32.3884 49.9656C32.8636 50.4726 33.3387 51.0967 33.8534 51.8378C34.3285 52.6179 34.8037 53.515 35.16 54.5292C35.5559 55.5433 35.7143 56.6744 35.7143 57.8836C35.7143 60.692 35.7143 63.4613 35.7143 66.2697C37.0209 66.1137 38.2879 65.9967 39.5945 65.8406C39.5945 57.7276 39.5945 49.6535 39.5945 41.5405C38.2879 41.6965 37.0209 41.8135 35.7143 41.9695C35.7539 43.8028 35.7539 45.675 35.7539 47.5083Z" fill="#EB006A"/>
<path d="M56.6202 42.7887C56.6202 43.9979 56.6202 45.2071 56.6202 46.4162C56.6202 50.7068 56.6202 54.9973 56.6202 59.3269C55.076 58.8198 53.6902 58.2348 52.4628 57.5717C51.275 56.9086 50.2059 56.1675 49.3349 55.3094C48.4638 54.4513 47.7511 53.5151 47.1968 52.423C46.6425 51.3699 46.2465 50.1607 45.9694 48.8345C45.811 48.0544 45.7318 47.2353 45.7714 46.3382C45.811 45.4411 45.9298 44.544 46.207 43.6859C46.4841 42.8277 46.9196 42.0086 47.474 41.1895C48.0679 40.4094 48.8202 39.7073 49.7704 39.1613C50.3643 38.8102 50.9186 38.5372 51.4729 38.3422C52.0273 38.1471 52.6212 37.9521 53.2151 37.8351C53.809 37.7181 54.4821 37.6401 55.1948 37.5621C55.9075 37.484 56.6993 37.445 57.61 37.406C57.8476 37.406 58.0455 37.367 58.2831 37.367C58.2831 36.1579 58.2831 34.9487 58.2831 33.7006C58.0455 33.7006 57.8476 33.7396 57.61 33.7396C56.6598 33.7786 55.7887 33.8566 54.9572 33.9346C54.1257 34.0126 53.3339 34.1296 52.5816 34.2856C51.8293 34.4417 51.0374 34.6757 50.3247 34.9487C49.5724 35.2218 48.8202 35.6118 48.0283 36.0409C46.8405 36.743 45.8506 37.6011 44.9795 38.6152C44.1085 39.6293 43.4354 40.7215 42.9602 41.9306C42.4455 43.1398 42.1288 44.427 42.01 45.7531C41.8912 47.1183 41.9704 48.4835 42.2476 49.8487C42.7623 52.345 43.6729 54.4123 44.9399 56.0895C46.207 57.7667 47.7115 59.1319 49.4141 60.185C51.1166 61.2381 52.8983 62.0573 54.7988 62.6423C56.6993 63.2274 58.5603 63.6565 60.342 63.9295C60.342 62.6813 60.342 61.4332 60.342 60.185C60.342 55.4654 60.342 50.7848 60.342 46.0652C62.9156 45.9482 65.4892 45.8701 68.0628 45.8701C68.0628 44.661 68.0628 43.4518 68.0628 42.2427C65.4892 42.2427 62.9156 42.3207 60.342 42.4377C59.1146 42.6717 57.8476 42.7107 56.6202 42.7887Z" fill="#EB006A"/>
<path d="M5.78005 38.4982C3.91914 38.5762 2.01863 38.6152 0.157715 38.6152C0.157715 48.7566 0.157715 58.8979 0.157715 69.0002C9.89782 67.635 17.1435 58.6249 17.1435 48.9906C17.1435 42.7888 12.0755 38.2642 5.78005 38.4982ZM4.35467 63.4225C4.35467 56.5186 4.35467 49.5757 4.35467 42.6718C4.8298 42.6718 5.30493 42.6328 5.81965 42.6328C9.77904 42.4767 12.9861 45.4411 12.9861 49.3416C12.9861 55.1924 9.50188 60.7311 4.35467 63.4225Z" fill="#EB006A"/>
<path d="M26.607 32.4913C28.8243 37.4059 33.9715 40.1753 39.673 39.5512C39.673 38.186 39.673 36.8208 39.673 35.4557C35.6344 35.8457 32.0314 33.9345 30.4476 30.463C29.1806 27.7327 27.9532 24.9633 26.6862 22.1939C26.805 22.0379 26.9634 21.8429 27.1217 21.6479C27.3989 21.2578 27.7156 20.8288 28.1116 20.3607C28.5075 19.8146 28.9035 19.3076 29.2994 18.7615C30.2101 17.5523 31.0019 16.4992 31.6355 15.6021C32.269 14.705 32.7837 13.9249 33.1796 13.2228C33.5756 12.5207 33.8527 11.8576 34.0507 11.2335C34.2091 10.6094 34.3278 9.94633 34.3278 9.20524C34.3278 8.69817 34.3278 8.1911 34.3278 7.68404C34.3278 7.05996 34.3278 6.55289 34.3278 6.12383C34.3278 5.69478 34.2882 5.30473 34.2486 4.95368C34.2091 4.60263 34.0903 4.3296 33.9715 4.05656C33.8527 3.82253 33.6547 3.5885 33.4568 3.39348C33.0608 3.04243 32.5857 2.8474 32.1106 2.8474C31.6354 2.8474 31.1603 2.8474 30.7248 2.92541C30.5664 2.92541 30.408 2.96442 30.2497 2.96442V3.00342C30.2101 3.00342 30.1309 3.00342 29.9725 3.00342C29.9329 3.00342 29.8933 3.00342 29.8537 3.00342C25.9339 3.43248 21.9745 3.86154 18.0547 4.21258C18.0547 4.3296 18.0547 4.44661 18.0547 4.56363H18.0151C18.0151 14.5489 18.0151 24.5732 18.0151 34.5585C19.3217 34.4415 20.5887 34.3245 21.8953 34.2075C21.8953 32.2963 21.8953 30.424 21.8953 28.5128C22.2121 28.1227 22.5288 27.6937 22.8456 27.3036C22.9644 27.1476 23.1228 26.9526 23.2415 26.7965C23.3999 26.5625 23.5979 26.3285 23.7563 26.1334C24.6669 28.2397 25.6568 30.385 26.607 32.4913ZM21.9349 22.545C21.8953 22.584 21.8953 22.584 21.8953 22.623C21.8953 17.6693 21.8953 12.6767 21.8953 7.72304C23.875 7.52802 25.8943 7.33299 27.874 7.09896C28.0324 7.09896 28.1908 7.05996 28.3492 7.05996C28.9827 6.98195 29.6162 6.90393 30.2497 6.86493C30.3288 6.86493 30.408 6.86493 30.4872 6.82592C30.4872 7.29399 30.4872 7.72304 30.4872 8.1911C30.4872 8.69817 30.4872 9.20524 30.4872 9.75131C30.4872 10.1414 30.4476 10.5314 30.3288 10.8825C30.2101 11.2335 30.0121 11.6626 29.6953 12.1306C29.3786 12.6377 28.9827 13.2228 28.4283 13.9639C27.874 14.705 27.2009 15.6411 26.3299 16.7722C25.9339 17.3183 25.538 17.8254 25.142 18.3714C24.3898 19.3466 23.8354 20.1267 23.3999 20.7117C22.9644 21.2578 22.6476 21.6869 22.4497 21.9599C22.2121 22.1549 22.0537 22.389 21.9349 22.545Z" fill="#EB006A"/>
<path d="M37.7726 2.1453C37.7726 3.43247 37.7726 4.68063 37.7726 5.9678C39.2772 5.81178 40.7422 5.65576 42.2467 5.49974C42.1676 5.92879 42.0488 6.31884 41.9696 6.7479C41.8508 7.17696 41.6924 7.60601 41.4549 8.11308C40.9401 9.24423 40.3462 10.3754 39.6731 11.4675C39 12.5597 38.2874 13.6518 37.5747 14.7829C36.664 16.2261 35.7533 17.6693 34.8823 19.1515C34.0112 20.6337 33.2589 22.1549 32.665 23.8321C32.3879 24.6512 32.1503 25.4313 31.9919 26.2114C31.9127 26.5625 31.8335 26.9525 31.7939 27.3036C33.1005 27.1476 34.4071 26.9915 35.7137 26.8745C35.8325 26.1724 36.0305 25.4703 36.3077 24.7683C36.7036 23.6371 37.2183 22.584 37.7726 21.5308C37.8914 21.6088 38.0102 21.6478 38.129 21.7259C38.3665 21.8429 38.6041 21.9599 38.8813 22.1159C39.396 22.3889 39.9107 22.662 40.3858 22.935C40.861 23.208 41.2965 23.5201 41.732 23.8711C41.93 24.0272 42.2467 24.3782 42.7219 24.8463C43.197 25.3533 43.6721 25.9774 44.1868 26.7575C44.662 27.5376 45.0975 28.4347 45.4934 29.4489C45.731 30.1119 45.8894 30.853 46.0082 31.5941C47.3148 31.4771 48.5818 31.3601 49.8884 31.2431C49.8884 21.1408 49.8884 11.0385 49.8884 0.936142C45.7706 1.24818 41.7716 1.67724 37.7726 2.1453ZM44.3848 20.8677C43.7909 20.3607 43.197 19.8926 42.5635 19.5806C41.9696 19.2295 41.3757 18.9175 40.8214 18.6445C40.4254 18.4494 40.1087 18.2544 39.7523 18.0984C40.0691 17.5913 40.3858 17.1233 40.7026 16.6162C41.4945 15.446 42.2467 14.2759 42.999 13.0667C43.7513 11.8966 44.3848 10.6094 44.9391 9.28323L44.9787 9.24423C45.1767 8.77617 45.3747 8.3081 45.4934 7.84004C45.6518 7.37198 45.7706 6.94293 45.8498 6.55288C45.8498 11.8186 45.8498 17.0842 45.8498 22.3889C45.2559 21.6478 44.7808 21.1798 44.3848 20.8677Z" fill="#EB006A"/>
<path fill-rule="evenodd" clip-rule="evenodd" d="M32.5059 30.1511C31.0013 30.1511 25.2998 36.6649 23.5973 38.0691C23.8744 37.406 24.8643 36.1579 24.983 36.0409C25.1018 35.9238 25.1018 35.6898 24.8247 35.6898C24.5079 35.6898 23.7556 36.2359 22.5282 36.5869C23.716 35.1047 24.6267 33.6225 24.6267 32.6084C24.6267 32.2184 24.5079 31.6723 23.8744 31.6723C21.4592 31.6723 18.9252 34.1296 18.4105 35.9628C18.1729 36.1969 17.7374 36.6259 17.3414 37.25C17.3414 37.25 17.3414 37.25 17.3018 37.289C16.8267 37.7571 10.3729 43.2178 6.29471 43.3738C6.92821 39.8633 15.9952 28.5519 20.5089 28.3178C20.3506 29.215 19.2815 30.4241 18.1729 31.5163C17.381 31.7893 15.8764 32.9985 15.0054 33.8566C14.649 34.2076 14.0551 35.7678 14.847 35.7678C15.3221 35.7678 21.4592 31.0482 21.4592 28.1228C21.4592 27.5767 21.1028 26.8747 20.1526 26.8747C14.5302 26.8747 5.14648 37.055 5.14648 44.0369C5.14648 45.012 5.7008 45.6361 6.49268 45.6361C9.22466 45.6361 14.2135 41.4236 16.5495 39.1223C16.4703 39.4343 16.4308 39.7853 16.4308 40.1754C16.4308 40.7995 16.7079 41.2675 17.2226 41.2675C17.8561 41.2675 19.8358 39.6683 21.578 37.7181C22.2115 37.6401 22.6866 37.484 23.0429 37.328C22.1323 38.5762 20.6277 41.0725 21.7363 41.0725C22.4886 41.0725 25.7353 37.484 28.0318 34.8707C27.2399 36.2749 26.5272 38.0301 26.5272 39.7073C26.5272 41.4626 27.3983 42.5547 27.3983 41.9306C27.3983 38.2251 29.9323 33.8566 32.5455 31.3212C32.8226 30.9702 32.981 30.1511 32.5059 30.1511ZM23.5973 33.3105C23.5181 34.0516 22.1323 35.5338 20.6673 36.86C20.5485 36.86 20.4693 36.899 20.3506 36.899C17.9353 36.899 20.9049 33.5055 23.5973 33.3105ZM17.4998 39.2003C17.5394 38.6542 18.0145 37.7571 18.45 37.094C18.6084 37.445 19.0044 37.6791 19.5983 37.7571C18.7668 38.4982 17.9353 39.0442 17.4998 39.2003Z" fill="black"/>
<path fill-rule="evenodd" clip-rule="evenodd" d="M43.2758 32.7644C42.3652 32.7644 39.4352 34.8317 37.6931 36.3139C38.0494 35.8458 38.4454 35.2997 38.9205 34.7536C43.4738 32.1403 47.8687 28.0838 47.8687 26.7186C47.8687 26.3285 47.6312 25.9775 47.2748 25.9775C45.9682 25.9775 40.1479 30.8921 37.3763 34.7146C36.822 34.9877 36.3073 35.2217 35.7926 35.4167C36.5449 34.3246 37.0992 33.2715 37.0992 32.4523C37.0992 32.0623 36.9804 31.5162 36.3469 31.5162C33.6545 31.5162 30.6454 34.3246 30.6454 35.9628C30.0911 36.7039 29.418 37.8741 29.418 39.3953C29.418 40.0193 29.6951 40.4874 30.2098 40.4874C30.9225 40.4874 33.1002 38.6542 34.8423 36.6259C35.3967 36.4699 35.951 36.2358 36.5449 36.0018C36.1489 36.7039 35.9114 37.367 35.9114 37.835C35.9114 38.3811 35.9906 38.8492 36.3469 38.8492C36.5053 38.8492 36.8616 38.4981 37.1388 38.1471C38.287 36.5479 41.2961 34.3246 42.8007 34.0516C42.5236 35.4557 38.9205 38.9272 37.4555 39.7073C37.6139 39.0832 38.1682 38.3811 37.9703 38.3811C37.6931 38.3811 36.5449 39.5123 36.5449 40.0583C36.5449 40.7604 36.8616 41.5795 37.4159 41.5795C38.5642 41.5795 44.0281 35.6898 44.0281 33.3885C43.9885 33.1544 43.751 32.7644 43.2758 32.7644ZM36.0302 33.0374C35.7926 33.7005 34.8027 34.9097 33.6149 36.0018C33.219 36.0798 32.823 36.1578 32.5063 36.1578C30.1703 36.1578 33.4961 33.2715 36.0302 33.0374ZM30.4078 38.5371C30.4474 38.1081 30.7246 37.445 31.0413 36.7819C31.3185 36.9769 31.7144 37.094 32.3083 37.094C32.3875 37.094 32.4667 37.094 32.5063 37.094C31.7144 37.718 30.9621 38.2641 30.4078 38.5371ZM46.4038 28.0448C45.0972 29.644 42.484 31.7503 40.3459 33.1544C42.6027 30.6581 45.3743 28.2008 46.4038 28.0448Z" fill="black"/>
<path fill-rule="evenodd" clip-rule="evenodd" d="M54.7579 31.7111C55.5893 31.7111 57.1335 31.5941 58.0838 30.775C58.3609 30.5019 58.0838 30.3849 57.2523 30.4629C56.3416 30.5799 55.2726 30.5799 54.7975 30.4629C54.1244 30.2679 53.9264 31.7111 54.7579 31.7111Z" fill="black"/>
<path fill-rule="evenodd" clip-rule="evenodd" d="M72.5751 31.0092C67.6258 31.0092 56.0248 38.3811 54.4015 37.64C54.6786 36.4309 56.0248 35.0267 56.5395 34.4806C56.9355 34.0906 56.0248 33.1934 55.6685 33.5445C55.2329 33.9735 52.4218 35.8458 50.9964 36.5869C51.8279 35.4947 53.57 33.7785 54.0055 33.3105C54.4411 32.8814 53.768 31.9063 53.1741 32.4913C52.7781 32.8814 47.5517 37.289 44.4238 37.562C44.4238 37.211 44.6218 36.7819 44.9385 36.2748C46.0472 36.0018 48.8187 34.3246 49.7294 33.4275C50.7192 32.4523 50.7588 30.8531 49.7294 30.8531C47.9081 30.8531 43.5527 34.6366 43.5527 37.484C43.5527 38.4981 43.9487 39.1222 44.5822 39.1222C45.6908 39.1222 48.3832 37.172 50.4421 35.6118C49.6106 36.9379 49.1751 38.1861 50.0461 38.1861C50.7192 38.1861 52.9365 36.4699 54.3223 35.2997C53.9263 35.9238 53.57 36.5869 53.57 37.133C53.57 37.9911 54.1639 38.8882 54.837 38.8882C57.4898 38.8882 68.5761 31.1652 74.0797 33.2714C74.634 32.8424 74.9903 31.0092 72.5751 31.0092ZM49.7294 32.1403C49.4126 33.1154 47.3142 34.4416 45.9284 35.0657C47.1558 33.6225 48.8187 32.2573 49.7294 32.1403Z" fill="black"/>
</svg>
