<svg width="87" height="89" viewBox="0 0 87 89" fill="none" xmlns="http://www.w3.org/2000/svg">
<path d="M19.5158 25.64C19.2383 24.453 18.7296 23.2661 17.9897 22.1286C16.6948 20.1504 14.7987 18.7162 12.3014 17.727C13.1801 16.8368 13.7813 16.0455 14.1513 15.2542C14.5212 14.5124 14.7062 13.6222 14.7062 12.6331C14.7062 12.2374 14.7062 11.8418 14.7062 11.4956C14.7062 10.6054 14.66 9.8141 14.6137 9.17117C14.5675 8.52825 14.29 7.93478 13.8276 7.44022C13.3651 6.94566 12.8101 6.69838 12.2552 6.64892C11.7002 6.59947 11.0528 6.59947 10.3591 6.64892C7.81557 6.79729 5.27204 6.8962 2.68227 6.94566C1.80359 6.94566 0.878674 6.94566 0 6.94566C0 19.7547 0 32.4154 0 45.0761C0 45.2245 0 45.3234 0 45.4718C0.046246 45.4718 0.184984 45.4718 0.416214 45.4718C0.647444 45.4718 0.971166 45.4718 1.34113 45.4718C2.03482 45.4718 2.86725 45.4223 3.88466 45.3234C4.90207 45.2245 6.05823 45.0267 7.26062 44.6805C8.46302 44.3838 9.71166 43.8892 10.9603 43.2957C12.2089 42.7023 13.4576 41.911 14.5675 40.9218C15.7236 39.9327 16.741 38.7952 17.6197 37.4105C18.4984 36.0257 19.1921 34.3937 19.6545 32.5638C19.6545 32.5143 19.6545 32.5143 19.6545 32.4649C19.7008 32.366 19.747 32.0198 19.8395 31.3769C19.932 30.7339 19.9783 29.8932 19.932 28.9041C19.9783 27.9644 19.7933 26.8269 19.5158 25.64ZM4.43962 11.7923C6.28945 11.7429 8.13929 11.644 9.98913 11.5451C10.0816 11.5451 10.1741 11.5451 10.2666 11.5451C10.2666 11.644 10.2666 11.7429 10.2666 11.8418C10.2666 12.2374 10.2666 12.6331 10.2666 13.0287C10.2666 13.3255 9.98913 13.7211 9.38794 14.3146C8.83298 14.9081 8.00056 15.6499 6.89065 16.5401V16.5896C6.47444 16.9357 6.01198 17.3314 5.59577 17.6776C5.17955 18.0238 4.80958 18.3205 4.39337 18.6667C4.43962 16.3423 4.43962 14.0673 4.43962 11.7923ZM15.4924 30.8823C15.4462 31.3274 15.3999 31.5747 15.3999 31.6736C14.9837 33.1573 14.3825 34.4431 13.5501 35.4817C12.7176 36.5203 11.7927 37.361 10.7753 38.0534C9.7579 38.7458 8.69425 39.2898 7.58434 39.636C6.47444 39.9822 5.41078 40.2789 4.48586 40.4273C4.48586 35.185 4.48586 29.8932 4.48586 24.6509C4.90208 24.3047 5.31829 24.0079 5.68826 23.6617C5.78075 23.6123 5.82699 23.5134 5.91949 23.4639C5.96573 23.4639 5.96573 23.4639 5.96573 23.4145C6.3357 23.1177 6.65942 22.821 7.02939 22.5243C7.39936 22.1781 7.76933 21.8813 8.13929 21.5351C9.57292 21.8319 10.8216 22.277 11.839 22.821C12.8564 23.4145 13.6888 24.1563 14.29 25.0465C14.7525 25.7389 15.0762 26.4313 15.2612 27.1731C15.4462 27.9149 15.5387 28.6073 15.5849 29.2503C15.5387 29.9426 15.5387 30.4372 15.4924 30.8823Z" fill="#EB006A"/>
<path d="M75.0106 0.615305C75.0106 5.56089 75.0106 10.457 75.0106 15.4026C74.2244 14.4135 73.6232 13.7211 73.1607 13.276C72.467 12.5342 71.7734 11.9407 71.0334 11.4956C70.3397 11.001 69.646 10.5559 68.9986 10.1603C68.3511 9.76464 67.7499 9.36899 67.2412 9.07226C66.7325 8.72607 66.3163 8.33042 65.9464 7.88532C65.6226 7.44022 65.3452 6.8962 65.1602 6.30273C64.9752 5.70926 64.8827 4.91797 64.8827 3.9783C64.8827 3.03864 64.8827 2.09898 64.8827 1.15932C63.3566 1.25823 61.8767 1.4066 60.3506 1.50551C60.3506 14.364 60.3506 27.1731 60.3506 40.0316C61.8767 39.8833 63.3566 39.7844 64.8827 39.6854C64.8827 30.9318 64.8827 22.1286 64.8827 13.3749C65.1602 13.5727 65.4376 13.7211 65.7151 13.9189C65.9926 14.0673 66.2701 14.2651 66.5938 14.4135C67.195 14.8091 67.7962 15.1553 68.3511 15.551C68.9061 15.9466 69.4148 16.3423 69.9235 16.8368C70.1547 17.0347 70.5247 17.4798 71.0797 18.1721C71.6346 18.8645 72.1896 19.7053 72.7908 20.6944C73.3457 21.733 73.8544 22.8704 74.3169 24.2058C74.7793 25.5411 74.9643 26.9753 74.9643 28.5084C74.9643 34.8882 74.9643 41.3175 74.9643 47.6973C76.4904 47.6478 77.9703 47.6478 79.4964 47.6478C79.4964 31.9703 79.4964 16.2434 79.4964 0.565849C78.0628 0.565849 76.5367 0.565849 75.0106 0.615305Z" fill="#EB006A"/>
<path d="M21.042 86.9158C22.5681 86.7674 24.048 86.619 25.5741 86.4707C25.5741 73.6121 25.5741 60.7536 25.5741 47.9445C24.048 48.0929 22.5681 48.2413 21.042 48.3896C21.042 61.2482 21.042 74.0572 21.042 86.9158Z" fill="#EB006A"/>
<path d="M41.7606 60.8031C40.9744 59.9129 40.3732 59.2205 39.9107 58.8249C39.217 58.1819 38.5233 57.6379 37.7834 57.1928C37.0897 56.7477 36.396 56.3521 35.7486 56.0059C35.1011 55.6597 34.4999 55.3135 33.9912 55.0168C33.4825 54.72 33.0663 54.3244 32.6964 53.9287C32.3726 53.4836 32.0952 52.9891 31.9102 52.3956C31.7252 51.8021 31.6327 51.0108 31.6327 50.0712C31.6327 49.1315 31.6327 48.1919 31.6327 47.2522C30.1066 47.45 28.6267 47.5984 27.1006 47.7468C27.1006 60.6053 27.1006 73.4638 27.1006 86.2728C28.6267 86.1245 30.1066 85.9267 31.6327 85.7783C31.6327 77.0246 31.6327 68.2215 31.6327 59.4678C31.9102 59.6656 32.1876 59.814 32.4651 59.9623C32.7426 60.1107 33.0201 60.2591 33.3438 60.4569C33.945 60.8031 34.5462 61.1493 35.1011 61.4955C35.6561 61.8417 36.2111 62.2373 36.6735 62.6824C36.9047 62.8802 37.2747 63.3253 37.8297 63.9188C38.3846 64.5617 38.9396 65.353 39.5408 66.2927C40.0957 67.2818 40.6507 68.4193 41.0669 69.7051C41.5293 70.991 41.7143 72.4252 41.7143 73.9583C41.7143 77.5192 41.7143 81.0305 41.7143 84.5913C43.2404 84.3935 44.7203 84.2452 46.2464 84.0473C46.2464 73.7605 46.2464 63.5232 46.2464 53.2364C44.7203 53.4342 43.2404 53.5825 41.7143 53.7804C41.7606 56.1048 41.7606 58.4787 41.7606 60.8031Z" fill="#EB006A"/>
<path d="M66.1321 54.8189C66.1321 56.3521 66.1321 57.8852 66.1321 59.4183C66.1321 64.8585 66.1321 70.2986 66.1321 75.7882C64.3285 75.1453 62.7099 74.4034 61.2763 73.5627C59.8889 72.7219 58.6402 71.7823 57.6228 70.6942C56.6054 69.6062 55.773 68.4193 55.1255 67.0345C54.4781 65.6992 54.0156 64.1661 53.6919 62.4846C53.5069 61.4955 53.4144 60.4569 53.4607 59.3194C53.5069 58.1819 53.6457 57.0444 53.9694 55.9564C54.2931 54.8684 54.8018 53.8298 55.4493 52.7912C56.1429 51.8021 57.0216 50.9119 58.1315 50.2195C58.8252 49.7744 59.4727 49.4283 60.1201 49.181C60.7675 48.9337 61.4612 48.6864 62.1549 48.538C62.8486 48.3897 63.6348 48.2908 64.4672 48.1919C65.2996 48.0929 66.2246 48.0435 67.2882 47.994C67.5657 47.994 67.7969 47.9446 68.0744 47.9446C68.0744 46.4114 68.0744 44.8783 68.0744 43.2957C67.7969 43.2957 67.5657 43.3452 67.2882 43.3452C66.1783 43.3946 65.1609 43.4936 64.1897 43.5925C63.2186 43.6914 62.2937 43.8397 61.415 44.0376C60.5363 44.2354 59.6114 44.5321 58.779 44.8783C57.9003 45.2245 57.0216 45.7191 56.0967 46.2631C54.7093 47.1533 53.5532 48.2413 52.5358 49.5272C51.5184 50.813 50.7322 52.1978 50.1772 53.7309C49.576 55.264 49.2061 56.8961 49.0673 58.5776C48.9286 60.3085 49.0211 62.0395 49.3448 63.7704C49.946 66.9356 51.0096 69.5568 52.4895 71.6834C53.9694 73.81 55.7267 75.5409 57.7153 76.8762C59.7039 78.2115 61.785 79.2501 64.0048 79.9919C66.2246 80.7338 68.3981 81.2778 70.4792 81.624C70.4792 80.0414 70.4792 78.4588 70.4792 76.8762C70.4792 70.8921 70.4792 64.9574 70.4792 58.9732C73.4852 58.8249 76.4912 58.7259 79.4972 58.7259C79.4972 57.1928 79.4972 55.6597 79.4972 54.1266C76.4912 54.1266 73.4852 54.2255 70.4792 54.3738C69.0456 54.6706 67.5657 54.72 66.1321 54.8189Z" fill="#EB006A"/>
<path d="M6.7515 49.3788C4.57794 49.4777 2.35813 49.5272 0.18457 49.5272C0.18457 62.3857 0.18457 75.2442 0.18457 88.0533C11.5611 86.3223 20.0241 74.898 20.0241 62.6824C20.0241 54.8189 14.1046 49.0821 6.7515 49.3788ZM5.08665 80.9811C5.08665 72.2274 5.08665 63.4243 5.08665 54.6706C5.6416 54.6706 6.19655 54.6211 6.79775 54.6211C11.4223 54.4233 15.1683 58.1819 15.1683 63.1275C15.1683 70.5459 11.0986 77.5686 5.08665 80.9811Z" fill="#EB006A"/>
<path d="M31.0774 41.7626C33.6671 47.994 39.6791 51.5054 46.3385 50.7141C46.3385 48.9831 46.3385 47.2522 46.3385 45.5212C41.6215 46.0158 37.4131 43.5925 35.5632 39.1909C34.0834 35.729 32.6497 32.2176 31.1699 28.7062C31.3086 28.5084 31.4936 28.2611 31.6786 28.0139C32.0023 27.5193 32.3723 26.9753 32.8347 26.3818C33.2972 25.6894 33.7596 25.0465 34.2221 24.3541C35.2858 22.821 36.2107 21.4857 36.9506 20.3482C37.6905 19.2107 38.2917 18.2216 38.7542 17.3314C39.2167 16.4412 39.5404 15.6004 39.7716 14.8091C39.9566 14.0178 40.0953 13.1771 40.0953 12.2374C40.0953 11.5945 40.0953 10.9516 40.0953 10.3087C40.0953 9.51737 40.0953 8.87444 40.0953 8.33042C40.0953 7.78641 40.0491 7.29185 40.0028 6.84675C39.9566 6.40165 39.8179 6.05545 39.6791 5.70926C39.5404 5.41253 39.3092 5.11579 39.0779 4.86851C38.6155 4.42341 38.0605 4.17613 37.5056 4.17613C36.9506 4.17613 36.3957 4.17613 35.887 4.27504C35.702 4.27504 35.517 4.3245 35.332 4.3245V4.37396C35.2858 4.37396 35.1933 4.37396 35.0083 4.37396C34.962 4.37396 34.9158 4.37396 34.8695 4.37396C30.2912 4.91797 25.6666 5.46198 21.0882 5.90709C21.0882 6.05546 21.0882 6.20382 21.0882 6.35219H21.042C21.042 19.0129 21.042 31.723 21.042 44.3838C22.5681 44.2354 24.048 44.087 25.5741 43.9386C25.5741 41.5153 25.5741 39.1414 25.5741 36.7181C25.9441 36.2235 26.314 35.6795 26.684 35.185C26.8227 34.9871 27.0077 34.7399 27.1465 34.542C27.3314 34.2453 27.5627 33.9486 27.7477 33.7013C28.8113 36.3719 29.9675 39.092 31.0774 41.7626ZM25.6203 29.1513C25.5741 29.2008 25.5741 29.2008 25.5741 29.2503C25.5741 22.9694 25.5741 16.639 25.5741 10.3581C27.8864 10.1108 30.2449 9.86356 32.5572 9.56682C32.7422 9.56682 32.9272 9.51737 33.1122 9.51737C33.8521 9.41845 34.5921 9.31954 35.332 9.27009C35.4245 9.27009 35.517 9.27009 35.6095 9.22063C35.6095 9.8141 35.6095 10.3581 35.6095 10.9516C35.6095 11.5945 35.6095 12.2374 35.6095 12.9298C35.6095 13.4244 35.5632 13.9189 35.4245 14.364C35.2858 14.8091 35.0545 15.3532 34.6846 15.9466C34.3146 16.5896 33.8521 17.3314 33.2047 18.2711C32.5572 19.2107 31.7711 20.3977 30.7536 21.8319C30.2912 22.5243 29.8287 23.1672 29.3663 23.8596C28.4876 25.096 27.8402 26.0851 27.3314 26.8269C26.8227 27.5193 26.4528 28.0633 26.2215 28.4095C25.9441 28.6568 25.7591 28.9535 25.6203 29.1513Z" fill="#EB006A"/>
<path d="M44.1189 3.28494C44.1189 4.91698 44.1189 6.49957 44.1189 8.13161C45.8762 7.93379 47.5873 7.73596 49.3447 7.53814C49.2522 8.08215 49.1135 8.57671 49.021 9.12073C48.8822 9.66474 48.6972 10.2088 48.4198 10.8517C47.8186 12.2859 47.1249 13.7201 46.3387 15.1049C45.5525 16.4896 44.7201 17.8744 43.8877 19.3086C42.824 21.1385 41.7603 22.9684 40.7429 24.8477C39.7255 26.727 38.8468 28.6558 38.1532 30.7824C37.8294 31.8209 37.552 32.8101 37.367 33.7992C37.2745 34.2443 37.182 34.7388 37.1357 35.1839C38.6619 34.9861 40.188 34.7883 41.7141 34.6399C41.8528 33.7497 42.0841 32.8595 42.4078 31.9693C42.8702 30.5351 43.4714 29.1998 44.1189 27.8645C44.2576 27.9634 44.3964 28.0128 44.5351 28.1118C44.8126 28.2601 45.09 28.4085 45.4138 28.6063C46.015 28.9525 46.6162 29.2987 47.1711 29.6449C47.7261 29.9911 48.2348 30.3867 48.7435 30.8318C48.9747 31.0297 49.3447 31.4748 49.8996 32.0682C50.4546 32.7112 51.0095 33.5024 51.6107 34.4916C52.1657 35.4807 52.6744 36.6182 53.1369 37.904C53.4143 38.7448 53.5993 39.6844 53.738 40.6241C55.2642 40.4757 56.744 40.3274 58.2702 40.179C58.2702 27.3699 58.2702 14.5609 58.2702 1.75181C53.4606 2.14745 48.7897 2.69147 44.1189 3.28494ZM51.842 27.0237C51.1483 26.3808 50.4546 25.7873 49.7146 25.3917C49.021 24.9466 48.3273 24.5509 47.6798 24.2048C47.2174 23.9575 46.8474 23.7102 46.4312 23.5124C46.8012 22.8694 47.1711 22.276 47.5411 21.633C48.466 20.1494 49.3447 18.6657 50.2234 17.1326C51.102 15.6489 51.842 14.0169 52.4894 12.3354L52.5357 12.2859C52.7669 11.6924 52.9981 11.099 53.1369 10.5055C53.3218 9.91202 53.4606 9.368 53.5531 8.87345C53.5531 15.55 53.5531 22.2265 53.5531 28.9525C52.8594 28.0129 52.3044 27.4194 51.842 27.0237Z" fill="#EB006A"/>
<path fill-rule="evenodd" clip-rule="evenodd" d="M37.9677 38.7943C36.2104 38.7943 29.5509 47.0534 27.5624 48.8338C27.8861 47.9931 29.0422 46.4105 29.181 46.2621C29.3197 46.1138 29.3197 45.817 28.996 45.817C28.626 45.817 27.7473 46.5094 26.3137 46.9545C27.7011 45.0752 28.7647 43.1959 28.7647 41.91C28.7647 41.4155 28.626 40.7231 27.8861 40.7231C25.0651 40.7231 22.1053 43.8388 21.5041 46.1632C21.2267 46.4599 20.7179 47.004 20.2555 47.7953C20.2555 47.7953 20.2555 47.7953 20.2092 47.8447C19.6543 48.4382 12.1162 55.362 7.35285 55.5598C8.09279 51.1088 18.6831 36.7666 23.9552 36.4699C23.7702 37.6074 22.5215 39.1405 21.2267 40.5253C20.3017 40.8714 18.5444 42.4046 17.527 43.4926C17.1108 43.9377 16.4171 45.9159 17.342 45.9159C17.8969 45.9159 25.0651 39.9318 25.0651 36.2226C25.0651 35.5302 24.6489 34.64 23.5389 34.64C16.972 34.64 6.01172 47.548 6.01172 56.4006C6.01172 57.637 6.65916 58.4283 7.58408 58.4283C10.7751 58.4283 16.6021 53.087 19.3306 50.1691C19.2381 50.5648 19.1918 51.0099 19.1918 51.5044C19.1918 52.2957 19.5155 52.8892 20.1167 52.8892C20.8567 52.8892 23.169 50.8615 25.2038 48.3887C25.9437 48.2898 26.4987 48.092 26.9149 47.8942C25.8512 49.4768 24.0939 52.6419 25.3888 52.6419C26.2675 52.6419 30.0596 48.092 32.7419 44.7785C31.817 46.5589 30.9846 48.7844 30.9846 50.911C30.9846 53.1365 32.002 54.5212 32.002 53.73C32.002 49.0317 34.9617 43.4926 38.0139 40.278C38.3377 39.8329 38.5227 38.7943 37.9677 38.7943ZM27.5624 42.8002C27.4699 43.7399 25.8512 45.6192 24.1401 47.3007C24.0014 47.3007 23.9089 47.3502 23.7702 47.3502C20.9492 47.3502 24.4176 43.0475 27.5624 42.8002ZM20.4405 50.268C20.4867 49.5757 21.0417 48.4382 21.5504 47.5974C21.7354 48.0425 22.1978 48.3393 22.8915 48.4382C21.9203 49.3778 20.9492 50.0702 20.4405 50.268Z" fill="white"/>
<path fill-rule="evenodd" clip-rule="evenodd" d="M50.5465 42.1088C49.4828 42.1088 46.0606 44.7299 44.0258 46.6092C44.442 46.0158 44.9045 45.3234 45.4594 44.631C50.7777 41.3175 55.911 36.1741 55.911 34.4431C55.911 33.9486 55.6335 33.5035 55.2173 33.5035C53.6912 33.5035 46.893 39.7349 43.6558 44.5815C43.0084 44.9277 42.4072 45.2245 41.806 45.4718C42.6846 44.087 43.3321 42.7517 43.3321 41.7131C43.3321 41.2186 43.1933 40.5262 42.4534 40.5262C39.3087 40.5262 35.794 44.087 35.794 46.1641C35.1465 47.1038 34.3604 48.5875 34.3604 50.5162C34.3604 51.3075 34.6841 51.901 35.2853 51.901C36.1177 51.901 38.6612 49.5766 40.6961 47.0049C41.3435 46.8071 41.991 46.5103 42.6846 46.2136C42.2222 47.1038 41.9447 47.9445 41.9447 48.538C41.9447 49.2304 42.0372 49.8239 42.4534 49.8239C42.6384 49.8239 43.0546 49.3788 43.3783 48.9337C44.7195 46.906 48.2342 44.087 49.9915 43.7408C49.6678 45.5212 45.4594 49.9228 43.7483 50.9119C43.9333 50.1206 44.5807 49.2304 44.3495 49.2304C44.0258 49.2304 42.6846 50.6646 42.6846 51.357C42.6846 52.2472 43.0546 53.2858 43.7021 53.2858C45.0432 53.2858 51.4251 45.8179 51.4251 42.9001C51.3789 42.6033 51.1014 42.1088 50.5465 42.1088ZM42.0834 42.4549C41.806 43.2957 40.6498 44.8288 39.2624 46.2136C38.8 46.3125 38.3375 46.4114 37.9675 46.4114C35.239 46.4114 39.1237 42.7517 42.0834 42.4549ZM35.5165 49.4282C35.5627 48.8842 35.8865 48.0434 36.2564 47.2027C36.5802 47.45 37.0426 47.5983 37.7363 47.5983C37.8288 47.5983 37.9213 47.5983 37.9675 47.5983C37.0426 48.3896 36.1639 49.082 35.5165 49.4282ZM54.1999 36.1246C52.6738 38.1523 49.6215 40.8229 47.1243 42.6033C49.7603 39.4382 52.9975 36.3224 54.1999 36.1246Z" fill="white"/>
<path fill-rule="evenodd" clip-rule="evenodd" d="M63.9583 40.7727C64.9295 40.7727 66.7331 40.6244 67.843 39.5863C68.1667 39.2403 67.843 39.092 66.8718 39.1908C65.8082 39.3392 64.5595 39.3392 64.0046 39.1908C63.2184 38.9437 62.9871 40.7727 63.9583 40.7727Z" fill="white"/>
<path fill-rule="evenodd" clip-rule="evenodd" d="M84.7684 39.8832C78.9877 39.8832 65.4376 49.2304 63.5415 48.2907C63.8652 46.7576 65.4376 44.9772 66.0388 44.2848C66.5013 43.7903 65.4376 42.6528 65.0214 43.0979C64.5127 43.6419 61.2292 46.0158 59.5644 46.9554C60.5355 45.5707 62.5703 43.3946 63.079 42.8011C63.5878 42.2571 62.8016 41.0207 62.1079 41.7626C61.6454 42.2571 55.541 47.8456 51.8875 48.1918C51.8875 47.7467 52.1188 47.2027 52.4887 46.5598C53.7836 46.2136 57.0208 44.087 58.0845 42.9495C59.2406 41.7131 59.2869 39.6854 58.0845 39.6854C55.9572 39.6854 50.8701 44.4826 50.8701 48.0929C50.8701 49.3788 51.3326 50.1701 52.0725 50.1701C53.3674 50.1701 56.5121 47.6973 58.9169 45.719C57.9458 47.4005 57.437 48.9831 58.4545 48.9831C59.2406 48.9831 61.8304 46.8071 63.449 45.3234C62.9866 46.1147 62.5703 46.9554 62.5703 47.6478C62.5703 48.7359 63.264 49.8733 64.0502 49.8733C67.1487 49.8733 80.0976 40.0811 86.5258 42.7517C87.1732 42.2077 87.5894 39.8832 84.7684 39.8832ZM58.0845 41.3175C57.7145 42.5539 55.2635 44.2354 53.6449 45.0267C55.0785 43.1968 57.0208 41.4658 58.0845 41.3175Z" fill="white"/>
</svg>
