<svg width="67" height="68" viewBox="0 0 67 68" fill="none" xmlns="http://www.w3.org/2000/svg">
<path d="M16.313 19.3294C16.0791 18.4072 15.6371 17.5105 15.0262 16.6395C13.9473 15.128 12.3615 14.0135 10.2818 13.2706C10.9967 12.5917 11.5296 11.9641 11.8416 11.3876C12.1665 10.7984 12.3225 10.1323 12.3225 9.38937C12.3225 9.09476 12.3225 8.80014 12.3225 8.50553C12.3225 7.81382 12.2965 7.21178 12.2445 6.69941C12.1925 6.18703 11.9716 5.75151 11.5686 5.38004C11.1657 5.00857 10.7237 4.81643 10.2428 4.778C9.76183 4.75238 9.22889 4.75238 8.64396 4.778C6.51222 4.89329 4.38047 4.98295 2.24873 5.02138C1.50782 5.00857 0.75391 5.02138 0 5.02138C0 14.7693 0 24.53 0 34.278C0 34.3804 0 34.4701 0 34.5726C0.0389953 34.5726 0.155981 34.5726 0.363956 34.5854C0.558933 34.5982 0.818902 34.5982 1.14386 34.5982C1.7028 34.5982 2.41771 34.5598 3.27561 34.4829C4.1335 34.406 5.06939 34.2395 6.08327 33.9961C7.09715 33.7528 8.13702 33.3941 9.1899 32.933C10.2558 32.4718 11.2566 31.8698 12.2055 31.1269C13.1544 30.3839 14.0123 29.4744 14.7662 28.4113C15.5201 27.3481 16.0791 26.0928 16.469 24.6581C16.469 24.6325 16.469 24.6197 16.469 24.5941C16.495 24.53 16.547 24.2482 16.638 23.7487C16.729 23.2491 16.755 22.6086 16.729 21.8401C16.69 21.0843 16.56 20.2389 16.313 19.3294ZM3.73055 8.64643C5.27737 8.59519 6.81118 8.53114 8.358 8.44148C8.43599 8.44148 8.51398 8.42867 8.59197 8.42867C8.59197 8.50553 8.59197 8.58238 8.59197 8.67205C8.59197 8.97947 8.59197 9.2869 8.59197 9.59432C8.59197 9.81208 8.358 10.1451 7.87705 10.5935C7.39611 11.0418 6.70719 11.6054 5.7973 12.2971C5.7973 12.3099 5.7973 12.3227 5.7973 12.3227C5.43335 12.6045 5.08239 12.8863 4.71843 13.1553C4.39347 13.4115 4.05551 13.6677 3.73055 13.9239C3.73055 12.1562 3.73055 10.4013 3.73055 8.64643ZM12.9464 23.3644C12.9074 23.6974 12.8815 23.9024 12.8555 23.9664C12.5175 25.1193 11.9976 26.0928 11.3086 26.887C10.6197 27.6811 9.83982 28.3472 8.99492 28.8724C8.13702 29.3976 7.25313 29.8075 6.31724 30.0893C5.38135 30.3711 4.52346 30.576 3.71755 30.6913C3.71755 26.6436 3.71755 22.5958 3.71755 18.5481C4.05551 18.2919 4.39347 18.0357 4.74443 17.7795C4.80942 17.7283 4.86142 17.677 4.92641 17.6258C4.95241 17.6258 4.9524 17.613 4.9524 17.6002C5.23837 17.3696 5.53733 17.1518 5.8233 16.9213C6.13526 16.6779 6.44723 16.4217 6.75919 16.1783C7.95504 16.4089 8.99492 16.7419 9.85282 17.1775C10.7107 17.6258 11.3996 18.1894 11.8936 18.8939C12.2705 19.4191 12.5435 19.9699 12.6865 20.5463C12.8425 21.1227 12.9204 21.6479 12.9594 22.1475C12.9984 22.6086 12.9984 23.0185 12.9464 23.3644Z" fill="white"/>
<path d="M62.7049 0.0512374C62.7049 3.84281 62.7049 7.64719 62.7049 11.4388C62.068 10.683 61.5481 10.1322 61.1711 9.78635C60.5862 9.23555 60.0013 8.77441 59.4163 8.40294C58.8184 8.03147 58.2595 7.69842 57.7135 7.391C57.1676 7.08357 56.6866 6.80177 56.2577 6.53277C55.8288 6.27659 55.4648 5.96916 55.1918 5.63612C54.9059 5.30307 54.6979 4.89317 54.5419 4.41923C54.3859 3.94528 54.3209 3.34324 54.3209 2.61311C54.3209 1.89578 54.3209 1.16565 54.3209 0.448327C53.0601 0.537993 51.7992 0.627658 50.5254 0.730133C50.5254 10.619 50.5254 20.495 50.5254 30.3838C51.7862 30.2813 53.0471 30.1788 54.3209 30.102C54.3209 23.3515 54.3209 16.6009 54.3209 9.8504C54.5419 9.9913 54.7629 10.1322 54.9969 10.2475C55.2308 10.3756 55.4778 10.5037 55.7378 10.6446C56.2447 10.9264 56.7256 11.221 57.1936 11.5156C57.6615 11.8102 58.1035 12.1433 58.5064 12.5147C58.6884 12.6813 59.0134 13.0271 59.4683 13.5395C59.9233 14.0519 60.4042 14.7051 60.8851 15.4865C61.3661 16.2679 61.795 17.1773 62.159 18.2021C62.5359 19.2268 62.7179 20.3413 62.7179 21.5197C62.7179 26.4513 62.7179 31.3829 62.7179 36.3145C63.9788 36.2889 65.2396 36.2633 66.5135 36.2633C66.5135 24.1713 66.5135 12.092 66.5135 0C65.2266 0 63.9658 0.0128094 62.7049 0.0512374Z" fill="white"/>
<path d="M17.5742 66.519C18.8351 66.4037 20.0959 66.2884 21.3698 66.1604C21.3698 56.2587 21.3698 46.3699 21.3698 36.4683C20.1089 36.5964 18.8481 36.7116 17.5742 36.8269C17.5742 46.7157 17.5742 56.6174 17.5742 66.519Z" fill="white"/>
<path d="M34.9132 46.4084C34.2763 45.7038 33.7564 45.2043 33.3794 44.884C32.7945 44.3717 32.2096 43.9618 31.6116 43.6287C31.0137 43.2957 30.4548 43.0011 29.9088 42.7193C29.3629 42.4375 28.882 42.1813 28.453 41.9507C28.0241 41.7073 27.6601 41.4255 27.3871 41.1053C27.1012 40.785 26.8932 40.388 26.7372 39.914C26.5812 39.4401 26.5162 38.8508 26.5162 38.1079C26.5162 37.3906 26.5162 36.6604 26.5162 35.9431C25.2554 36.084 23.9816 36.2121 22.7207 36.3402C22.7207 46.2418 22.7207 56.1307 22.7207 66.0323C23.9816 65.9042 25.2554 65.7761 26.5162 65.6352C26.5162 58.8719 26.5162 52.1213 26.5162 45.358C26.7372 45.4989 26.9582 45.6142 27.1922 45.7295C27.4261 45.8447 27.6731 45.96 27.9331 46.0881C28.44 46.3443 28.921 46.6133 29.3889 46.8823C29.8569 47.1513 30.2988 47.4587 30.7017 47.8046C30.8837 47.9583 31.2087 48.2785 31.6636 48.7653C32.1316 49.252 32.5995 49.8669 33.0805 50.6098C33.5614 51.3528 33.9904 52.2238 34.3543 53.2229C34.7313 54.2221 34.9132 55.3109 34.9132 56.5021C34.9132 59.2305 34.9132 61.9589 34.9132 64.7001C36.1741 64.5592 37.4479 64.4183 38.7088 64.2774C38.7088 56.3612 38.7088 48.4579 38.7088 40.5417C37.4479 40.6826 36.1741 40.8235 34.9132 40.9644C34.9132 42.7705 34.9132 44.5894 34.9132 46.4084Z" fill="white"/>
<path d="M55.2686 41.8096C55.2686 42.9881 55.2686 44.1666 55.2686 45.3322C55.2686 49.5337 55.2686 53.7224 55.2686 57.9238C53.7478 57.4243 52.396 56.8606 51.2131 56.2202C50.0432 55.5797 49.0294 54.8496 48.1715 54.0298C47.3136 53.21 46.6247 52.2749 46.0787 51.2245C45.5328 50.1742 45.1298 49.0085 44.8699 47.702C44.7139 46.9462 44.6359 46.1264 44.6619 45.2554C44.6879 44.3843 44.8309 43.5261 45.1038 42.6679C45.3768 41.8225 45.7928 41.0155 46.3517 40.2469C46.9106 39.4783 47.6645 38.8123 48.6134 38.2615C49.1723 37.9284 49.7313 37.6722 50.2642 37.4673C50.8102 37.2623 51.3691 37.1086 51.967 36.9933C52.5649 36.878 53.2019 36.7884 53.8908 36.7371C54.5797 36.6731 55.3726 36.6219 56.2565 36.5706C56.4775 36.5578 56.6984 36.545 56.9194 36.5322C56.9194 35.3409 56.9194 34.1625 56.9194 32.9712C56.6984 32.984 56.4775 32.9968 56.2565 33.0096C55.3336 33.0609 54.4627 33.1249 53.6698 33.2018C52.8639 33.2786 52.084 33.3939 51.3301 33.5604C50.5762 33.7141 49.8353 33.9319 49.1204 34.2009C48.3924 34.4699 47.6515 34.8285 46.8846 35.2769C45.7408 35.9558 44.7529 36.7884 43.921 37.7747C43.0891 38.761 42.4262 39.837 41.9322 41.0283C41.4383 42.2067 41.1393 43.4621 41.0093 44.7814C40.8923 46.1008 40.9703 47.433 41.2563 48.7908C41.7632 51.2117 42.6341 53.2356 43.895 54.8752C45.1558 56.5148 46.5987 57.847 48.2495 58.8845C49.9003 59.9221 51.655 60.7291 53.5268 61.2927C55.3986 61.8691 57.2054 62.2918 58.9472 62.5608C58.9472 61.3439 58.9472 60.127 58.9472 58.9101C58.9472 54.3116 58.9472 49.7258 58.9472 45.1273C61.4689 45.012 63.9776 44.9479 66.4993 44.9479C66.4993 43.7695 66.4993 42.591 66.4993 41.4254C63.9776 41.4254 61.4689 41.4894 58.9472 41.6047C57.7123 41.6559 56.4905 41.7328 55.2686 41.8096Z" fill="white"/>
<path d="M5.65331 37.5827C3.82053 37.6467 2.00075 37.6851 0.167969 37.6851C0.167969 47.5868 0.167969 57.4756 0.167969 67.3772C9.66983 66.0194 16.741 57.2322 16.741 47.8301C16.741 41.7841 11.7756 37.3649 5.65331 37.5827ZM4.23648 61.9204C4.23648 55.1571 4.23648 48.3938 4.23648 41.6432C4.70442 41.6304 5.17237 41.6176 5.65331 41.6048C9.51385 41.4639 12.6595 44.3332 12.6595 48.1376C12.6595 53.889 9.25388 59.3073 4.23648 61.9204Z" fill="white"/>
<path d="M25.9712 31.7288C28.155 36.5451 33.1464 39.2222 38.7097 38.6074C38.7097 37.2752 38.7097 35.9302 38.7097 34.5981C34.7842 35.0336 31.2616 33.1378 29.7148 29.7433C28.4929 27.0534 27.2711 24.3762 26.0492 21.6862C26.1792 21.5197 26.3222 21.3276 26.4652 21.1354C26.7381 20.7768 27.0501 20.3541 27.414 19.8801C27.804 19.3677 28.1939 18.8426 28.5839 18.3302C29.4808 17.1389 30.2477 16.127 30.8716 15.2559C31.4956 14.3977 32.0025 13.6292 32.3924 12.9374C32.7824 12.2457 33.0684 11.6053 33.2373 10.9904C33.4063 10.3756 33.4973 9.7223 33.4973 9.00498C33.4973 8.50541 33.4973 8.01866 33.4973 7.51909C33.4973 6.92986 33.4973 6.41749 33.4973 5.98197C33.4973 5.54645 33.4713 5.16217 33.4193 4.82913C33.3673 4.49608 33.2893 4.21428 33.1594 3.9709C33.0424 3.72752 32.8734 3.50976 32.6524 3.31762C32.2495 2.97177 31.8205 2.79244 31.3396 2.77963C30.8716 2.76682 30.4167 2.79244 29.9747 2.84368C29.8188 2.85649 29.6758 2.88211 29.5198 2.89492C29.5198 2.90772 29.5198 2.92053 29.5198 2.92053C29.4808 2.90772 29.3898 2.90772 29.2468 2.92053C29.2078 2.92053 29.1688 2.93334 29.1298 2.93334C25.2823 3.35605 21.4478 3.76595 17.6002 4.09899C17.6002 4.21428 17.6002 4.34237 17.6002 4.45766C17.5872 4.45766 17.5742 4.45766 17.5742 4.45766C17.5742 14.2184 17.5742 23.9919 17.5742 33.7526C18.8351 33.6374 20.0959 33.5221 21.3698 33.394C21.3698 31.5494 21.3698 29.6921 21.3698 27.8475C21.6687 27.4504 21.9807 27.0534 22.2797 26.6563C22.4096 26.4897 22.5396 26.3104 22.6566 26.1439C22.8256 25.9261 22.9946 25.7084 23.1506 25.4906C24.0994 27.5913 25.0353 29.6665 25.9712 31.7288ZM21.3958 22.0065C21.3698 22.0321 21.3698 22.0449 21.3698 22.0705C21.3698 17.2158 21.3698 12.361 21.3698 7.50628C23.3195 7.31414 25.2693 7.10919 27.2191 6.89143C27.375 6.87862 27.518 6.85301 27.674 6.8402C28.2979 6.77615 28.9089 6.69929 29.5328 6.63525C29.6108 6.62244 29.6888 6.62244 29.7668 6.60963C29.7668 7.05795 29.7668 7.49347 29.7668 7.9418C29.7668 8.44137 29.7668 8.95374 29.7668 9.4533C29.7668 9.85039 29.7148 10.2219 29.5978 10.5677C29.4938 10.9136 29.2858 11.3235 28.9999 11.8102C28.7139 12.2842 28.2979 12.8862 27.765 13.5907C27.2321 14.2952 26.5561 15.2175 25.7112 16.3319C25.3213 16.8443 24.9313 17.3695 24.5414 17.8819C23.8265 18.8426 23.2545 19.5983 22.8386 20.1491C22.4226 20.6999 22.0977 21.097 21.8897 21.366C21.6817 21.6478 21.5257 21.8656 21.3958 22.0065Z" fill="white"/>
<path d="M36.876 2.08787C36.876 3.33038 36.876 4.57288 36.876 5.81539C38.3318 5.64887 39.7746 5.49516 41.2304 5.34144C41.1525 5.75134 41.0485 6.14843 40.9445 6.55833C40.8405 6.96823 40.6715 7.40375 40.4505 7.89051C39.9436 9.00492 39.3717 10.0937 38.7217 11.1569C38.0718 12.2201 37.3829 13.2961 36.668 14.4105C35.7711 15.8195 34.8872 17.2285 34.0293 18.6632C33.1714 20.0978 32.4435 21.6093 31.8716 23.2105C31.5856 23.9919 31.3646 24.7732 31.2086 25.5546C31.1307 25.9133 31.0787 26.2719 31.0137 26.6306C32.2875 26.4897 33.5614 26.3488 34.8352 26.1951C34.9652 25.5034 35.1602 24.8117 35.4071 24.1456C35.8101 23.0568 36.278 22.0064 36.824 20.9945C36.941 21.0585 37.0449 21.1226 37.1619 21.1738C37.3959 21.2891 37.6429 21.4044 37.9028 21.5325C38.4098 21.7887 38.8907 22.0577 39.3587 22.3267C39.8266 22.5956 40.2686 22.9031 40.6715 23.2489C40.8535 23.4026 41.1785 23.7229 41.6334 24.2096C42.0883 24.6964 42.5693 25.3112 43.0502 26.067C43.5312 26.8227 43.9601 27.6938 44.3241 28.6929C44.571 29.359 44.727 30.0635 44.805 30.8064V30.8193C46.0659 30.6912 47.3267 30.5759 48.5876 30.4606C48.5876 20.5974 48.5876 10.7342 48.5876 0.883789C44.688 1.24245 40.7755 1.65235 36.876 2.08787ZM43.3492 20.3668C42.7643 19.8544 42.1793 19.4317 41.5944 19.0987C40.9965 18.7657 40.4375 18.4582 39.8916 18.1892C39.5276 17.9971 39.1767 17.8178 38.8647 17.6512C39.1637 17.1773 39.4757 16.6905 39.8006 16.2038C40.5675 15.0509 41.3084 13.8981 42.0233 12.7453C42.7383 11.5796 43.3752 10.3499 43.9211 9.05616C43.9341 9.04335 43.9471 9.03054 43.9471 9.01773C44.1421 8.54378 44.3111 8.08265 44.4541 7.64713C44.597 7.21161 44.714 6.7889 44.818 6.379C44.818 11.5284 44.818 16.6777 44.818 21.8271C44.1941 21.161 43.7131 20.6742 43.3492 20.3668Z" fill="white"/>
</svg>
