<svg width="87" height="81" viewBox="0 0 87 81" fill="none" xmlns="http://www.w3.org/2000/svg">
<path d="M19.5158 23.098C19.2383 22.0046 18.7296 20.9112 17.9897 19.8634C16.6948 18.041 14.7987 16.7199 12.3014 15.8087C13.1801 14.9886 13.7813 14.2597 14.1513 13.5308C14.5212 12.8474 14.7062 12.0274 14.7062 11.1162C14.7062 10.7517 14.7062 10.3873 14.7062 10.0684C14.7062 9.24831 14.66 8.51938 14.6137 7.92713C14.5675 7.33487 14.29 6.78817 13.8276 6.33259C13.3651 5.87701 12.8101 5.64922 12.2552 5.60366C11.7002 5.5581 11.0528 5.5581 10.3591 5.60366C7.81557 5.74033 5.27204 5.83145 2.68227 5.87701C1.80359 5.87701 0.878674 5.87701 0 5.87701C0 17.6766 0 29.3395 0 41.0024C0 41.1391 0 41.2302 0 41.3669C0.046246 41.3669 0.184984 41.3669 0.416214 41.3669C0.647444 41.3669 0.971166 41.3669 1.34113 41.3669C2.03482 41.3669 2.86725 41.3213 3.88466 41.2302C4.90207 41.1391 6.05822 40.9568 7.26062 40.6379C8.46302 40.3646 9.71166 39.909 10.9603 39.3623C12.2089 38.8156 13.4576 38.0867 14.5675 37.1755C15.7236 36.2643 16.741 35.2165 17.6197 33.9409C18.4984 32.6652 19.1921 31.1618 19.6545 29.4762C19.6545 29.4306 19.6545 29.4306 19.6545 29.385C19.7008 29.2939 19.747 28.975 19.8395 28.3828C19.932 27.7905 19.9783 27.016 19.932 26.1049C19.9783 25.2392 19.7933 24.1914 19.5158 23.098ZM4.43962 10.3417C6.28945 10.2962 8.13929 10.205 9.98913 10.1139C10.0816 10.1139 10.1741 10.1139 10.2666 10.1139C10.2666 10.205 10.2666 10.2962 10.2666 10.3873C10.2666 10.7517 10.2666 11.1162 10.2666 11.4807C10.2666 11.754 9.98913 12.1185 9.38794 12.6652C8.83298 13.2119 8.00056 13.8953 6.89065 14.7153V14.7609C6.47444 15.0798 6.01198 15.4442 5.59576 15.7631C5.17955 16.082 4.80958 16.3554 4.39337 16.6743C4.43961 14.5331 4.43962 12.4374 4.43962 10.3417ZM15.4924 27.9272C15.4462 28.3372 15.3999 28.565 15.3999 28.6561C14.9837 30.0229 14.3825 31.2074 13.5501 32.1641C12.7176 33.1208 11.7927 33.8953 10.7753 34.5331C9.7579 35.1709 8.69425 35.6721 7.58434 35.991C6.47444 36.3099 5.41078 36.5832 4.48586 36.7199C4.48586 31.8907 4.48586 27.016 4.48586 22.1868C4.90207 21.8679 5.31829 21.5946 5.68826 21.2757C5.78075 21.2301 5.82699 21.139 5.91949 21.0934C5.96573 21.0934 5.96573 21.0934 5.96573 21.0479C6.3357 20.7745 6.65942 20.5012 7.02939 20.2278C7.39936 19.9089 7.76933 19.6356 8.13929 19.3167C9.57292 19.59 10.8216 20.0001 11.839 20.5012C12.8564 21.0479 13.6888 21.7313 14.29 22.5513C14.7525 23.1891 15.0762 23.8269 15.2612 24.5103C15.4462 25.1937 15.5387 25.8315 15.5849 26.4238C15.5387 27.0616 15.5387 27.5172 15.4924 27.9272Z" fill="white"/>
<path d="M75.0106 0.0455582C75.0106 4.60138 75.0106 9.11164 75.0106 13.6675C74.2244 12.7563 73.6232 12.1185 73.1607 11.7085C72.467 11.0251 71.7733 10.4784 71.0334 10.0684C70.3397 9.61279 69.646 9.20276 68.9986 8.83829C68.3511 8.47383 67.7499 8.10936 67.2412 7.83601C66.7325 7.51711 66.3163 7.15264 65.9464 6.74262C65.6226 6.33259 65.3451 5.83145 65.1602 5.28475C64.9752 4.73806 64.8827 4.00912 64.8827 3.14352C64.8827 2.27791 64.8827 1.4123 64.8827 0.546699C63.3566 0.637815 61.8767 0.77449 60.3506 0.865606C60.3506 12.7107 60.3506 24.5103 60.3506 36.3555C61.8767 36.2188 63.3566 36.1277 64.8827 36.0366C64.8827 27.9727 64.8827 19.8634 64.8827 11.7996C65.1602 11.9818 65.4376 12.1185 65.7151 12.3007C65.9926 12.4374 66.2701 12.6196 66.5938 12.7563C67.195 13.1208 67.7962 13.4397 68.3511 13.8041C68.9061 14.1686 69.4148 14.5331 69.9235 14.9887C70.1547 15.1709 70.5247 15.5809 71.0797 16.2187C71.6346 16.8565 72.1896 17.631 72.7908 18.5422C73.3457 19.4989 73.8544 20.5468 74.3169 21.7768C74.7793 23.0069 74.9643 24.3281 74.9643 25.7404C74.9643 31.6174 74.9643 37.54 74.9643 43.417C76.4904 43.3714 77.9703 43.3714 79.4964 43.3714C79.4964 28.9295 79.4964 14.442 79.4964 0C78.0628 0 76.5367 0 75.0106 0.0455582Z" fill="white"/>
<path d="M21.042 79.5446C22.5681 79.408 24.048 79.2713 25.5741 79.1346C25.5741 67.2895 25.5741 55.4444 25.5741 43.6448C24.048 43.7815 22.5681 43.9181 21.042 44.0548C21.042 55.8999 21.042 67.6995 21.042 79.5446Z" fill="white"/>
<path d="M41.7606 55.4899C40.9744 54.6699 40.3732 54.032 39.9107 53.6676C39.217 53.0753 38.5233 52.5742 37.7834 52.1642C37.0897 51.7541 36.396 51.3897 35.7486 51.0708C35.1011 50.7519 34.4999 50.4329 33.9912 50.1596C33.4825 49.8862 33.0663 49.5218 32.6963 49.1573C32.3726 48.7473 32.0952 48.2917 31.9102 47.745C31.7252 47.1983 31.6327 46.4694 31.6327 45.6038C31.6327 44.7382 31.6327 43.8726 31.6327 43.007C30.1066 43.1892 28.6267 43.3259 27.1006 43.4625C27.1006 55.3077 27.1006 67.1528 27.1006 78.9524C28.6267 78.8157 30.1066 78.6335 31.6327 78.4968C31.6327 70.433 31.6327 62.3236 31.6327 54.2598C31.9102 54.4421 32.1876 54.5787 32.4651 54.7154C32.7426 54.8521 33.0201 54.9888 33.3438 55.171C33.945 55.4899 34.5462 55.8088 35.1011 56.1277C35.6561 56.4466 36.211 56.8111 36.6735 57.2211C36.9047 57.4034 37.2747 57.8134 37.8297 58.3601C38.3846 58.9523 38.9396 59.6813 39.5408 60.5469C40.0957 61.458 40.6507 62.5059 41.0669 63.6904C41.5293 64.8749 41.7143 66.1961 41.7143 67.6084C41.7143 70.8886 41.7143 74.1232 41.7143 77.4034C43.2404 77.2212 44.7203 77.0845 46.2464 76.9023C46.2464 67.4262 46.2464 57.9956 46.2464 48.5195C44.7203 48.7017 43.2404 48.8384 41.7143 49.0206C41.7606 51.1619 41.7606 53.3487 41.7606 55.4899Z" fill="white"/>
<path d="M66.1321 49.9774C66.1321 51.3897 66.1321 52.802 66.1321 54.2143C66.1321 59.2257 66.1321 64.2371 66.1321 69.2941C64.3285 68.7018 62.7099 68.0184 61.2763 67.2439C59.8889 66.4694 58.6402 65.6038 57.6228 64.6016C56.6054 63.5993 55.773 62.5059 55.1255 61.2302C54.4781 60.0002 54.0156 58.5879 53.6919 57.0389C53.5069 56.1277 53.4144 55.171 53.4607 54.1232C53.5069 53.0753 53.6457 52.0275 53.9694 51.0252C54.2931 50.0229 54.8018 49.0662 55.4493 48.1095C56.143 47.1983 57.0216 46.3783 58.1315 45.7405C58.8252 45.3304 59.4727 45.0115 60.1201 44.7837C60.7675 44.5559 61.4612 44.3281 62.1549 44.1915C62.8486 44.0548 63.6348 43.9637 64.4672 43.8726C65.2997 43.7815 66.2246 43.7359 67.2882 43.6903C67.5657 43.6903 67.7969 43.6448 68.0744 43.6448C68.0744 42.2325 68.0744 40.8202 68.0744 39.3623C67.7969 39.3623 67.5657 39.4079 67.2882 39.4079C66.1783 39.4534 65.1609 39.5445 64.1898 39.6357C63.2186 39.7268 62.2937 39.8634 61.415 40.0457C60.5363 40.2279 59.6114 40.5013 58.779 40.8202C57.9003 41.1391 57.0216 41.5947 56.0967 42.0958C54.7093 42.9158 53.5532 43.9181 52.5358 45.1026C51.5184 46.2872 50.7322 47.5628 50.1772 48.9751C49.576 50.3874 49.2061 51.8908 49.0673 53.4398C48.9286 55.0343 49.0211 56.6289 49.3448 58.2234C49.946 61.1391 51.0096 63.5537 52.4895 65.5127C53.9694 67.4717 55.7267 69.0663 57.7153 70.2963C59.7039 71.5264 61.785 72.4831 64.0048 73.1665C66.2246 73.8499 68.3981 74.351 70.4792 74.6699C70.4792 73.2121 70.4792 71.7542 70.4792 70.2963C70.4792 64.7838 70.4792 59.3168 70.4792 53.8043C73.4852 53.6676 76.4912 53.5765 79.4972 53.5765C79.4972 52.1642 79.4972 50.7519 79.4972 49.3396C76.4912 49.3396 73.4852 49.4307 70.4792 49.5673C69.0456 49.8407 67.5657 49.8862 66.1321 49.9774Z" fill="white"/>
<path d="M6.7515 44.9659C4.57794 45.0571 2.35813 45.1026 0.18457 45.1026C0.18457 56.9478 0.18457 68.7929 0.18457 80.5925C11.5611 78.9979 20.0241 68.474 20.0241 57.2211C20.0241 49.9774 14.1046 44.6926 6.7515 44.9659ZM5.08665 74.0777C5.08665 66.0138 5.08665 57.9045 5.08665 49.8407C5.6416 49.8407 6.19655 49.7951 6.79775 49.7951C11.4223 49.6129 15.1683 53.0753 15.1683 57.6311C15.1683 64.4649 11.0986 70.9341 5.08665 74.0777Z" fill="white"/>
<path d="M31.0774 37.95C33.6671 43.6903 39.6791 46.925 46.3385 46.196C46.3385 44.6015 46.3385 43.007 46.3385 41.4124C41.6215 41.868 37.4131 39.6356 35.5632 35.581C34.0834 32.3919 32.6497 29.1573 31.1699 25.9226C31.3086 25.7404 31.4936 25.5126 31.6786 25.2848C32.0023 24.8292 32.3723 24.3281 32.8347 23.7814C33.2972 23.1436 33.7596 22.5513 34.2221 21.9135C35.2858 20.5012 36.2107 19.2711 36.9506 18.2233C37.6905 17.1754 38.2917 16.2643 38.7542 15.4442C39.2167 14.6242 39.5404 13.8497 39.7716 13.1208C39.9566 12.3918 40.0953 11.6173 40.0953 10.7517C40.0953 10.1595 40.0953 9.56722 40.0953 8.97496C40.0953 8.24603 40.0953 7.65378 40.0953 7.15264C40.0953 6.65149 40.0491 6.19591 40.0028 5.78589C39.9566 5.37586 39.8179 5.05696 39.6791 4.73805C39.5404 4.4647 39.3092 4.19135 39.0779 3.96356C38.6155 3.55354 38.0605 3.32574 37.5056 3.32574C36.9506 3.32574 36.3957 3.32574 35.887 3.41686C35.702 3.41686 35.517 3.46242 35.332 3.46242V3.50798C35.2858 3.50798 35.1933 3.50798 35.0083 3.50798C34.962 3.50798 34.9158 3.50798 34.8695 3.50798C30.2912 4.00912 25.6666 4.51026 21.0882 4.92028C21.0882 5.05696 21.0882 5.19363 21.0882 5.33031H21.042C21.042 16.9932 21.042 28.7017 21.042 40.3646C22.5681 40.2279 24.048 40.0912 25.5741 39.9546C25.5741 37.7222 25.5741 35.5354 25.5741 33.3031C25.9441 32.8475 26.314 32.3463 26.684 31.8908C26.8227 31.7085 27.0077 31.4807 27.1465 31.2985C27.3314 31.0251 27.5627 30.7518 27.7477 30.524C28.8113 32.9841 29.9675 35.4898 31.0774 37.95ZM25.6203 26.3326C25.5741 26.3782 25.5741 26.3782 25.5741 26.4238C25.5741 20.6379 25.5741 14.8064 25.5741 9.02052C27.8864 8.79273 30.2449 8.56494 32.5572 8.29159C32.7422 8.29159 32.9272 8.24603 33.1122 8.24603C33.8521 8.15492 34.5921 8.0638 35.332 8.01824C35.4245 8.01824 35.517 8.01824 35.6095 7.97268C35.6095 8.51938 35.6095 9.02052 35.6095 9.56722C35.6095 10.1595 35.6095 10.7517 35.6095 11.3896C35.6095 11.8451 35.5632 12.3007 35.4245 12.7107C35.2858 13.1208 35.0545 13.6219 34.6846 14.1686C34.3146 14.7609 33.8521 15.4442 33.2047 16.3098C32.5572 17.1754 31.7711 18.2688 30.7536 19.59C30.2912 20.2278 29.8287 20.8201 29.3663 21.4579C28.4876 22.5969 27.8402 23.508 27.3314 24.1914C26.8227 24.8292 26.4528 25.3304 26.2215 25.6493C25.9441 25.8771 25.7591 26.1504 25.6203 26.3326Z" fill="white"/>
<path d="M44.1189 2.5057C44.1189 4.00912 44.1189 5.46699 44.1189 6.97041C45.8762 6.78818 47.5873 6.60594 49.3447 6.42371C49.2522 6.92485 49.1135 7.38043 49.021 7.88157C48.8822 8.38271 48.6972 8.88385 48.4198 9.47611C47.8186 10.7973 47.1249 12.1185 46.3387 13.3941C45.5525 14.6697 44.7201 15.9454 43.8877 17.2666C42.824 18.9522 41.7603 20.6379 40.7429 22.3691C39.7255 24.1003 38.8468 25.8771 38.1532 27.8361C37.8294 28.7928 37.552 29.704 37.367 30.6151C37.2745 31.0251 37.182 31.4807 37.1357 31.8907C38.6619 31.7085 40.188 31.5263 41.7141 31.3896C41.8528 30.5696 42.0841 29.7495 42.4078 28.9295C42.8702 27.6083 43.4714 26.3782 44.1189 25.1481C44.2576 25.2393 44.3964 25.2848 44.5351 25.3759C44.8126 25.5126 45.0901 25.6493 45.4138 25.8315C46.015 26.1504 46.6162 26.4693 47.1711 26.7882C47.7261 27.1071 48.2348 27.4716 48.7435 27.8816C48.9747 28.0639 49.3447 28.4739 49.8996 29.0206C50.4546 29.6128 51.0095 30.3418 51.6107 31.2529C52.1657 32.1641 52.6744 33.2119 53.1369 34.3965C53.4143 35.1709 53.5993 36.0365 53.7381 36.9022C55.2642 36.7655 56.744 36.6288 58.2702 36.4921C58.2702 24.6926 58.2702 12.893 58.2702 1.0934C53.4606 1.45786 48.7897 1.959 44.1189 2.5057ZM51.842 24.3736C51.1483 23.7814 50.4546 23.2347 49.7147 22.8702C49.021 22.4602 48.3273 22.0957 47.6798 21.7768C47.2174 21.549 46.8474 21.3212 46.4312 21.139C46.8012 20.5468 47.1711 20.0001 47.5411 19.4078C48.466 18.0411 49.3447 16.6743 50.2234 15.262C51.102 13.8953 51.842 12.3918 52.4894 10.8429L52.5357 10.7973C52.7669 10.2506 52.9981 9.7039 53.1369 9.1572C53.3218 8.6105 53.4606 8.10936 53.5531 7.65378C53.5531 13.8041 53.5531 19.9545 53.5531 26.1504C52.8594 25.2848 52.3044 24.7381 51.842 24.3736Z" fill="white"/>
<path fill-rule="evenodd" clip-rule="evenodd" d="M37.9677 35.2165C36.2103 35.2165 29.5509 42.8247 27.5623 44.4648C27.8861 43.6903 29.0422 42.2325 29.181 42.0958C29.3197 41.9591 29.3197 41.6858 28.996 41.6858C28.626 41.6858 27.7473 42.3236 26.3137 42.7336C27.7011 41.0024 28.7647 39.2712 28.7647 38.0867C28.7647 37.6311 28.626 36.9933 27.8861 36.9933C25.0651 36.9933 22.1053 39.8634 21.5041 42.0047C21.2266 42.278 20.7179 42.7792 20.2555 43.5081C20.2555 43.5081 20.2555 43.5081 20.2092 43.5536C19.6543 44.1003 12.1162 50.4785 7.35285 50.6607C8.09279 46.5605 18.6831 33.3486 23.9552 33.0753C23.7702 34.1231 22.5215 35.5354 21.2267 36.811C20.3017 37.1299 18.5444 38.5422 17.527 39.5445C17.1108 39.9545 16.4171 41.7769 17.342 41.7769C17.8969 41.7769 25.0651 36.2643 25.0651 32.8475C25.0651 32.2096 24.6489 31.3896 23.5389 31.3896C16.972 31.3896 6.01172 43.2803 6.01172 51.4352C6.01172 52.5742 6.65916 53.3031 7.58408 53.3031C10.7751 53.3031 16.602 48.3828 19.3306 45.6949C19.2381 46.0593 19.1918 46.4694 19.1918 46.9249C19.1918 47.6539 19.5155 48.2006 20.1167 48.2006C20.8567 48.2006 23.169 46.3327 25.2038 44.0548C25.9437 43.9637 26.4987 43.7814 26.9149 43.5992C25.8512 45.0571 24.0939 47.9728 25.3888 47.9728C26.2675 47.9728 30.0596 43.7814 32.7419 40.729C31.817 42.3691 30.9846 44.4192 30.9846 46.3783C30.9846 48.4284 32.002 49.704 32.002 48.9751C32.002 44.647 34.9617 39.5445 38.0139 36.5832C38.3377 36.1732 38.5226 35.2165 37.9677 35.2165ZM27.5623 38.9067C27.4699 39.7723 25.8512 41.5035 24.1401 43.0525C24.0014 43.0525 23.9089 43.0981 23.7702 43.0981C20.9492 43.0981 24.4176 39.1345 27.5623 38.9067ZM20.4405 45.786C20.4867 45.1482 21.0417 44.1003 21.5504 43.3258C21.7354 43.7359 22.1978 44.0092 22.8915 44.1003C21.9203 44.9659 20.9492 45.6038 20.4405 45.786Z" fill="black"/>
<path fill-rule="evenodd" clip-rule="evenodd" d="M50.5464 38.2689C49.4828 38.2689 46.0606 40.6835 44.0258 42.4147C44.442 41.868 44.9044 41.2302 45.4594 40.5924C50.7777 37.54 55.911 32.8019 55.911 31.2074C55.911 30.7518 55.6335 30.3418 55.2173 30.3418C53.6912 30.3418 46.893 36.0821 43.6558 40.5468C43.0084 40.8657 42.4072 41.1391 41.806 41.3669C42.6846 40.0912 43.3321 38.8612 43.3321 37.9044C43.3321 37.4488 43.1933 36.811 42.4534 36.811C39.3087 36.811 35.794 40.0912 35.794 42.0047C35.1465 42.8703 34.3604 44.237 34.3604 46.0138C34.3604 46.7427 34.6841 47.2894 35.2853 47.2894C36.1177 47.2894 38.6612 45.1482 40.6961 42.7792C41.3435 42.5969 41.9909 42.3236 42.6846 42.0502C42.2222 42.8703 41.9447 43.6448 41.9447 44.1915C41.9447 44.8293 42.0372 45.376 42.4534 45.376C42.6384 45.376 43.0546 44.966 43.3783 44.5559C44.7195 42.688 48.2341 40.0912 49.9915 39.7723C49.6678 41.4124 45.4594 45.4671 43.7483 46.3783C43.9333 45.6493 44.5807 44.8293 44.3495 44.8293C44.0258 44.8293 42.6846 46.1505 42.6846 46.7883C42.6846 47.6083 43.0546 48.5651 43.702 48.5651C45.0432 48.5651 51.4251 41.6858 51.4251 38.9978C51.3789 38.7245 51.1014 38.2689 50.5464 38.2689ZM42.0834 38.5878C41.806 39.3623 40.6498 40.7746 39.2624 42.0502C38.8 42.1413 38.3375 42.2325 37.9675 42.2325C35.239 42.2325 39.1237 38.8612 42.0834 38.5878ZM35.5165 45.0115C35.5627 44.5104 35.8865 43.7359 36.2564 42.9614C36.5802 43.1892 37.0426 43.3259 37.7363 43.3259C37.8288 43.3259 37.9213 43.3259 37.9675 43.3259C37.0426 44.0548 36.1639 44.6926 35.5165 45.0115ZM54.1999 32.7564C52.6738 34.6242 49.6215 37.0844 47.1242 38.7245C49.7603 35.8088 52.9975 32.9386 54.1999 32.7564Z" fill="black"/>
<path fill-rule="evenodd" clip-rule="evenodd" d="M63.9583 37.0388C64.9295 37.0388 66.7331 36.9022 67.843 35.9454C68.1667 35.6265 67.843 35.4898 66.8718 35.581C65.8082 35.7176 64.5595 35.7176 64.0046 35.581C63.2184 35.3532 62.9871 37.0388 63.9583 37.0388Z" fill="black"/>
<path fill-rule="evenodd" clip-rule="evenodd" d="M84.7684 36.2188C78.9877 36.2188 65.4376 44.8293 63.5415 43.9637C63.8652 42.5514 65.4376 40.9113 66.0388 40.2735C66.5013 39.8179 65.4376 38.77 65.0214 39.1801C64.5127 39.6812 61.2292 41.868 59.5644 42.7336C60.5355 41.458 62.5703 39.4534 63.0791 38.9067C63.5878 38.4056 62.8016 37.2666 62.1079 37.95C61.6454 38.4056 55.541 43.5537 51.8875 43.8726C51.8875 43.4625 52.1188 42.9614 52.4887 42.3691C53.7836 42.0502 57.0208 40.0912 58.0845 39.0434C59.2406 37.9044 59.2869 36.0365 58.0845 36.0365C55.9572 36.0365 50.8701 40.4557 50.8701 43.7814C50.8701 44.966 51.3326 45.6949 52.0725 45.6949C53.3674 45.6949 56.5121 43.417 58.9169 41.5946C57.9458 43.1436 57.437 44.6015 58.4545 44.6015C59.2406 44.6015 61.8304 42.5969 63.449 41.2302C62.9866 41.9591 62.5703 42.7336 62.5703 43.3714C62.5703 44.3737 63.264 45.4215 64.0502 45.4215C67.1487 45.4215 80.0976 36.401 86.5258 38.8612C87.1732 38.36 87.5894 36.2188 84.7684 36.2188ZM58.0845 37.54C57.7145 38.6789 55.2635 40.2279 53.6449 40.9568C55.0785 39.2712 57.0208 37.6766 58.0845 37.54Z" fill="black"/>
</svg>
